<?xml version="1.0" encoding="UTF-8"?>
<!DOCTYPE svg PUBLIC "-//W3C//DTD SVG 1.1//EN" "http://www.w3.org/Graphics/SVG/1.1/DTD/svg11.dtd">
<!-- Creator: CorelDRAW -->
<svg xmlns="http://www.w3.org/2000/svg" xml:space="preserve" width="285.4mm" height="279.4mm" version="1.1" style="shape-rendering:geometricPrecision; text-rendering:geometricPrecision; image-rendering:optimizeQuality; fill-rule:evenodd; clip-rule:evenodd"
viewBox="0 0 28540 27940"
 xmlns:xlink="http://www.w3.org/1999/xlink"
 xmlns:xodm="http://www.corel.com/coreldraw/odm/2003">
 <defs>
  <style type="text/css">
   <![CDATA[
    .str1 {stroke:#23242B;stroke-width:400;stroke-miterlimit:22.9256}
    .str0 {stroke:#23242B;stroke-width:250;stroke-linecap:round;stroke-linejoin:round;stroke-miterlimit:22.9256}
    .fil2 {fill:none}
    .fil1 {fill:#23242B}
    .fil0 {fill:#23242B;fill-rule:nonzero}
   ]]>
  </style>
 </defs>
 <g id="Capa_x0020_1">
  <metadata id="CorelCorpID_0Corel-Layer"/>
  <path class="fil0" d="M11987.18 16633.46c-0.57,4.09 -2.12,7.59 -4.83,10.31 -2.76,2.72 -5.86,4.09 -9.57,4.09 -4.44,0 -8.14,-1.37 -10.68,-4.09 -2.54,-2.72 -3.71,-6.22 -3.71,-10.31l0 -451.61c0,-4.1 1.38,-7.6 4.09,-10.32 2.72,-2.72 6.21,-4.08 10.3,-4.08 4.1,0 7.59,1.36 10.34,4.08 2.72,2.72 4.06,6.22 4.06,10.32l0 451.61zm281.59 -339.15c28.78,0 52.14,5.84 70.23,17.32 18.07,11.48 31.51,27.05 39.87,46.7 8.39,19.64 12.66,41.44 12.66,65.76l0 209.95c0,3.69 -1.37,7.01 -4.09,9.73 -2.72,2.72 -5.82,4.09 -9.53,4.09 -4.09,0 -7.62,-1.37 -10.12,-4.09 -2.54,-2.72 -3.7,-6.04 -3.7,-9.73l0 -207.22c0,-19.65 -3.28,-37.55 -9.92,-53.51 -6.59,-16.15 -17.14,-28.99 -31.71,-38.53 -14.4,-9.53 -33.3,-14.4 -56.45,-14.4 -20.25,0 -39.9,4.87 -59.12,14.4 -19.26,9.54 -35.03,22.38 -47.7,38.53 -12.63,15.96 -18.87,33.86 -18.87,53.51l0 207.22c0,3.69 -1.34,7.01 -4.09,9.73 -2.72,2.72 -6.04,4.09 -9.74,4.09 -4.06,0 -7.37,-1.37 -9.91,-4.09 -2.54,-2.72 -3.67,-6.04 -3.67,-9.73l0 -315.02c0,-3.7 1.34,-6.81 4.06,-9.54 2.75,-2.73 5.85,-4.08 9.52,-4.08 4.09,0 7.41,1.35 9.95,4.08 2.54,2.73 3.88,5.84 3.88,9.54l0 67.33 -17.11 32.88c0,-16.54 4.27,-32.3 13.02,-47.28 8.75,-15.19 20.07,-28.61 34.25,-40.28 14.22,-11.67 29.99,-20.82 47.1,-27.44 17.11,-6.61 34.25,-9.92 51.19,-9.92zm220.23 -1.36c2.33,0 4.7,0.78 7.2,2.53 2.54,1.56 4.31,3.69 5.26,6.42l126.86 304.12 -6.81 4.67 129.01 -308.79c2.33,-6.03 7.2,-8.95 14.39,-8.95 2.33,0 5.08,0.96 8.19,2.71 3.31,1.75 4.86,4.67 4.86,8.38 0,2.14 -0.21,3.89 -0.77,5.06 -0.39,1.17 -0.78,2.13 -1.17,3.11l-136.59 326.69c-2.33,6.04 -6.63,8.96 -13.05,8.96 -2.72,0 -5.44,-0.79 -7.98,-2.34 -2.54,-1.75 -4.09,-3.89 -5.08,-6.62l-137.33 -326.1c-0.43,-0.99 -0.81,-1.95 -0.99,-2.92 -0.18,-1.17 -0.39,-2.15 -0.39,-3.13 0,-3.69 1.17,-7 3.28,-9.71 2.37,-2.73 6.07,-4.09 11.11,-4.09zm526.53 361.72c-34.44,0 -64.77,-7.39 -91.06,-22 -26.28,-14.59 -47.09,-35.4 -62.26,-62.06 -14.99,-26.67 -22.58,-58.19 -22.58,-94.37 0,-38.34 7.41,-71.03 22.37,-98.08 14.99,-27.03 34.07,-47.86 57.61,-62.26 23.53,-14.4 48.64,-21.59 75.31,-21.59 19.26,0 37.93,3.1 56.24,9.34 18.27,6.03 34.64,15.76 49,28.79 14.43,13.05 26.1,29.38 35.03,48.85 8.96,19.25 13.83,42.61 14.81,69.66 0,3.68 -1.37,7 -4.09,9.92 -2.71,2.91 -6.03,4.48 -9.73,4.48l-280 0 -4.1 -26.08 276.69 0 -6.99 6.03 0 -12.25c-2.15,-24.34 -9.95,-44.56 -22.96,-61.1 -13.02,-16.54 -28.61,-29 -47.1,-37.36 -18.27,-8.56 -37.15,-12.84 -56.8,-12.84 -13.83,0 -28.22,3.11 -43.39,9.34 -14.99,6.22 -29,15.56 -41.84,28.21 -12.66,12.65 -23.14,28.41 -31.15,47.66 -7.97,19.28 -12.06,41.65 -12.06,67.14 0,28.02 5.64,53.69 16.75,77.05 11.29,23.16 28.01,42.03 50.2,56.23 22.16,14.2 49.6,21.21 82.1,21.21 15.59,0 30.16,-2.52 43.78,-7.78 13.82,-5.25 26.07,-12.26 37.18,-21.02 11.08,-8.75 19.82,-18.09 26.63,-28.22 3.71,-4.08 7.62,-6.02 11.71,-6.02 3.29,0 6,1.17 8.15,3.69 2.33,2.54 3.5,5.25 3.5,8.56 0,3.32 -0.96,6.04 -2.72,8.17 -14.18,18.49 -32.31,34.45 -54.47,48.26 -22.19,13.63 -46.71,20.44 -73.76,20.44zm207.82 -61.69c-3.32,-5.63 -4.7,-10.11 -4.48,-13.42 0.17,-3.32 1.94,-6.23 5.25,-8.57 2.15,-2.33 5.26,-3.3 9.17,-3.1 3.89,0.18 7.17,1.93 9.88,5.06 11.89,16.92 27.27,30.74 45.72,41.24 18.52,10.51 40.5,15.77 65.58,15.77 15,0 29.6,-2.54 43.43,-7.4 14.01,-5.06 25.47,-12.64 34.43,-22.77 8.93,-10.11 13.41,-22.38 13.41,-36.97 0,-15.56 -4.27,-28.02 -13.02,-37.36 -8.75,-9.52 -19.86,-16.92 -33.65,-22.38 -13.83,-5.63 -28.23,-10.1 -43.22,-13.81 -16.16,-4.09 -31.33,-8.76 -45.72,-14.01 -14.43,-5.25 -27.06,-11.86 -38.14,-19.84 -10.9,-7.98 -19.64,-17.52 -26.07,-28.6 -6.42,-11.09 -9.56,-24.13 -9.56,-39.11 0,-17.9 4.87,-33.87 14.43,-48.06 9.53,-14.21 23.14,-25.3 40.47,-33.27 17.32,-7.98 37.53,-12.07 60.5,-12.07 10.9,0 22.58,1.35 34.82,4.27 12.49,2.73 24.9,7.4 37.18,14.02 12.24,6.61 23.74,15.95 34.43,27.83 3.71,2.72 5.26,6.03 5.08,9.91 -0.21,3.9 -1.94,7.4 -5.08,10.52 -2.89,1.75 -5.82,2.72 -9.14,2.72 -3.1,0 -5.85,-1.36 -8.18,-4.09 -11.85,-13.23 -25.65,-22.96 -41.45,-29.38 -15.74,-6.42 -32.67,-9.73 -50.38,-9.73 -15.17,0 -29.38,2.52 -42.44,7.58 -13.02,5.07 -23.53,12.47 -31.89,22.38 -8.15,9.92 -12.28,22.38 -12.28,37.37 0.99,14.2 5.86,25.88 14.82,35.02 8.96,9.15 20.82,16.54 35.6,22.57 14.99,6.04 31.71,11.48 50.58,16.54 15,3.69 29,7.79 42.06,12.65 13.01,4.86 24.48,10.9 34.43,18.28 9.91,7.21 17.71,16.36 23.35,27.44 5.65,10.9 8.54,24.52 8.54,41.05 0,19.28 -5.26,36.01 -15.56,50.01 -10.3,13.81 -24.31,24.53 -42.4,32.11 -18.1,7.59 -38.74,11.29 -62.09,11.29 -23.92,0 -46.71,-4.87 -68.69,-14.4 -21.98,-9.54 -41.84,-25.29 -59.72,-47.29zm306.84 -290.31l159.18 0c3.67,0 6.59,1.37 9.13,4.08 2.54,2.73 3.88,5.65 3.88,8.96 0,3.7 -1.34,6.82 -3.88,9.33 -2.54,2.54 -5.46,3.71 -9.13,3.71l-159.18 0c-3.31,0 -6.24,-1.37 -8.96,-4.08 -2.71,-2.92 -4.09,-5.84 -4.09,-8.96 0,-3.69 1.38,-6.81 4.09,-9.33 2.72,-2.54 5.65,-3.71 8.96,-3.71zm69.85 -100.98c4.1,0 7.41,1.35 9.95,4.08 2.51,2.73 3.88,5.84 3.88,9.54l0 357.64c0,15.17 1.94,26.25 5.82,33.46 3.92,7.01 8.75,11.48 14.78,13.61 6.04,2.15 11.68,3.13 17.15,3.13 3.28,0 6.03,-0.4 8.15,-1.36 2.33,-0.98 5.08,-1.37 8.36,-1.37 3.14,0 5.86,1.37 8.18,3.9 2.33,2.51 3.5,5.25 3.5,8.35 0,4.1 -2.72,7.8 -7.98,10.71 -5.25,2.92 -11.85,4.48 -19.65,4.48 -2.71,0 -7.58,-0.21 -14.78,-0.4 -6.98,-0.18 -14.6,-2.33 -22.58,-6.23 -7.97,-3.88 -14.78,-10.89 -20.21,-21.21 -5.47,-10.3 -8.18,-25.48 -8.18,-45.53l0 -359.18c0,-3.7 1.37,-6.81 4.09,-9.54 2.71,-2.73 5.82,-4.08 9.52,-4.08zm206.06 432.35c0,3.69 -1.38,7.01 -4.09,9.73 -2.72,2.72 -6.03,4.09 -9.7,4.09 -4.1,0 -7.41,-1.37 -9.95,-4.09 -2.51,-2.72 -3.67,-6.04 -3.67,-9.73l0 -325.91c0,-3.7 1.34,-6.82 4.06,-9.55 2.75,-2.92 5.85,-4.27 9.56,-4.27 4.05,0 7.37,1.35 9.91,4.27 2.5,2.73 3.88,5.85 3.88,9.55l0 325.91zm-13.79 -386.43c-7.24,0 -13.06,-1.95 -17.54,-6.04 -4.26,-4.08 -6.42,-9.52 -6.42,-15.94l0 -5.46c0,-6.41 2.33,-11.67 6.81,-15.75 4.48,-4.09 10.51,-6.23 17.92,-6.23 6.42,0 11.64,2.14 15.95,6.23 4.48,4.08 6.6,9.34 6.6,15.75l0 5.46c0,6.42 -2.12,11.86 -6.6,15.94 -4.31,4.09 -9.91,6.04 -16.72,6.04zm272.59 46.7c20.6,0 39.86,3.69 57.57,11.09 17.92,7.2 33.69,16.93 47.1,28.79 13.44,11.88 23.95,24.72 31.54,38.53 7.58,13.63 11.46,27.05 11.46,40.28l-8.96 -25.29 0 -68.69c0,-3.7 1.2,-6.81 3.7,-9.54 2.54,-2.73 5.86,-4.08 9.92,-4.08 4.09,0 7.41,1.35 9.95,4.08 2.5,2.73 3.88,5.84 3.88,9.54l0 295.17c0,35.23 -7.2,65.76 -21.59,91.26 -14.4,25.69 -34.26,45.34 -59.34,59.16 -25.12,13.81 -54.5,20.61 -87.95,20.61 -18.31,0 -36.79,-2.52 -55.28,-7.38 -18.48,-4.87 -34.04,-10.9 -46.28,-18.1 -12.28,-7.2 -18.49,-14.98 -18.49,-23.35 0,-3.7 0.95,-6.62 2.89,-8.95 2.16,-2.15 5.08,-3.32 8.75,-3.32 4.48,0 8.75,2.54 12.67,7.4 3.88,5.07 10.9,9.74 21.02,13.82 4.06,1.35 9.53,3.31 16.73,5.45 7.19,2.34 15.76,4.28 25.68,5.84 10.12,1.75 21.41,2.53 33.65,2.53 43.39,0 77.65,-13.43 102.55,-40.28 25.09,-26.66 37.54,-61.68 37.54,-104.69l0 -67.91 6.81 0.58c-5.43,19.67 -13.41,36.4 -24.1,50.21 -10.51,13.82 -22.57,24.91 -36.01,33.27 -13.41,8.37 -27.63,14.6 -42.62,18.49 -14.78,3.89 -29,5.84 -42.79,5.84 -31.54,0 -59.73,-7.79 -84.84,-23.54 -24.91,-15.78 -44.74,-37.36 -59.34,-64.6 -14.61,-27.25 -22.02,-57.99 -22.02,-92.43 0,-34.24 7.41,-65 22.02,-92.23 14.6,-27.24 34.43,-48.64 59.34,-64.21 25.11,-15.58 53.3,-23.35 84.84,-23.35zm1.34 26.07c-26.46,0 -50.38,6.62 -71.58,20.05 -21.24,13.23 -37.96,31.31 -50.2,54.48 -12.07,23.15 -18.1,49.41 -18.1,79.19 0,29.38 6.03,55.65 18.1,78.99 12.24,23.36 28.96,41.84 50.2,55.26 21.2,13.44 45.12,20.24 71.58,20.24 26.67,0 50.41,-6.42 71.4,-19.45 21.06,-13.04 37.78,-31.13 50.02,-54.3 12.46,-23.15 18.7,-50.01 18.7,-80.74 0,-30.55 -6.24,-57.41 -18.7,-80.56 -12.24,-23.15 -28.96,-41.05 -50.02,-53.89 -20.99,-12.85 -44.73,-19.27 -71.4,-19.27zm562.33 -14.98c4.12,0 7.4,1.35 9.94,4.08 2.51,2.73 3.67,5.84 3.67,9.54l0 315.02c0,3.69 -1.34,7.01 -4.05,9.73 -2.75,2.72 -5.86,4.09 -9.56,4.09 -4.1,0 -7.59,-1.37 -10.09,-4.09 -2.54,-2.72 -3.71,-6.04 -3.71,-9.73l0 -97.49 11.12 -8.76c0,14.61 -3.74,29.59 -11.12,44.57 -7.19,14.99 -17.32,28.8 -30.16,41.24 -12.84,12.27 -28.01,22.2 -45.33,29.78 -17.32,7.59 -36.2,11.29 -56.23,11.29 -30.55,0 -58,-7.98 -82.13,-23.94 -23.92,-16.14 -42.79,-37.75 -56.62,-65.18 -13.83,-27.44 -20.6,-58.38 -20.6,-92.81 0,-34.84 6.98,-65.57 20.99,-92.23 14,-26.67 33.09,-47.67 57.01,-63.05 23.95,-15.38 51.18,-23.15 81.35,-23.15 19.65,0 38.31,3.5 55.63,10.69 17.32,7.21 32.52,17.13 45.54,29.98 13.02,12.65 23.36,27.63 30.55,44.95 7.38,17.11 11.12,35.8 11.12,55.84l-11.12 -17.12 0 -99.63c0,-3.7 1.17,-6.81 3.71,-9.54 2.5,-2.73 5.99,-4.08 10.09,-4.08zm-144.18 323.19c25.71,0 48.64,-6.8 68.68,-20.24 20.08,-13.42 35.81,-31.9 47.31,-55.44 11.46,-23.55 17.11,-50.41 17.11,-80.17 0,-28.21 -5.65,-53.9 -17.11,-77.05 -11.5,-23.16 -27.23,-41.64 -47.31,-55.08 -20.04,-13.4 -42.97,-20.23 -68.68,-20.23 -25.09,0 -47.88,6.62 -68.09,19.65 -20.04,13.04 -35.98,30.94 -47.66,53.91 -11.5,22.75 -17.32,49.03 -17.32,78.8 0,29.76 5.64,56.62 17.11,80.17 11.5,23.54 27.23,42.02 47.31,55.44 20,13.44 42.96,20.24 68.65,20.24zm423.4 -334.28c20.64,0 39.9,2.34 58,7 18.09,4.48 32.88,10.5 43.99,18.1 11.25,7.59 16.93,15.37 16.93,23.74 0,3.11 -1.37,6.23 -3.91,9.15 -2.51,2.91 -5.44,4.46 -9.14,4.46 -5.08,0 -9.17,-1.35 -12.07,-4.09 -2.92,-2.71 -6.03,-6.02 -9.34,-9.91 -3.11,-3.9 -8.19,-7.4 -15,-10.7 -6.42,-3.11 -15.56,-5.85 -27.23,-8.18 -11.68,-2.33 -25.86,-3.5 -42.79,-3.5 -26.67,0 -50.8,6.83 -72.78,20.63 -21.98,13.82 -39.51,32.11 -52.53,55.26 -13.05,23.15 -19.47,49.03 -19.47,77.83 0,29.38 6.03,55.65 18.09,78.99 12.28,23.36 29.18,41.84 50.8,55.26 21.77,13.44 47.1,20.24 75.89,20.24 20.6,0 36.19,-1.94 46.88,-5.84 10.69,-3.89 20.04,-8.16 27.83,-12.65 9.74,-5.44 16.34,-10.69 20.04,-15.75 3.71,-5.06 7.97,-7.59 13.02,-7.59 3.7,0 6.42,1.17 8.57,3.5 2.15,2.13 3.14,5.26 3.14,8.94 0,5.46 -5.08,12.65 -15.2,21.61 -9.92,8.76 -24.13,16.74 -42.23,23.55 -18.1,6.81 -39.48,10.31 -64.21,10.31 -33.26,0 -62.83,-7.79 -88.51,-23.54 -25.5,-15.78 -45.54,-37.36 -60.15,-64.6 -14.39,-27.25 -21.59,-57.99 -21.59,-92.43 0,-31.91 7.2,-61.5 21.59,-88.73 14.61,-27.24 34.65,-49.22 60.54,-65.96 25.86,-16.74 56.02,-25.1 90.84,-25.1zm230.79 339.73c0,3.69 -1.38,7.01 -4.09,9.73 -2.72,2.72 -6.04,4.09 -9.74,4.09 -4.09,0 -7.37,-1.37 -9.91,-4.09 -2.54,-2.72 -3.71,-6.04 -3.71,-9.73l0 -325.91c0,-3.7 1.38,-6.82 4.09,-9.55 2.72,-2.92 5.86,-4.27 9.53,-4.27 4.09,0 7.41,1.35 9.95,4.27 2.5,2.73 3.88,5.85 3.88,9.55l0 325.91zm-13.83 -386.43c-7.2,0 -13.02,-1.95 -17.5,-6.04 -4.3,-4.08 -6.42,-9.52 -6.42,-15.94l0 -5.46c0,-6.41 2.33,-11.67 6.81,-15.75 4.48,-4.09 10.51,-6.23 17.88,-6.23 6.43,0 11.68,2.14 15.99,6.23 4.48,4.08 6.59,9.34 6.59,15.75l0 5.46c0,6.42 -2.11,11.86 -6.59,15.94 -4.31,4.09 -9.95,6.04 -16.76,6.04zm444.99 227.26c0,33.86 -7.37,64.41 -21.98,91.66 -14.6,27.24 -34.64,48.82 -60.11,64.6 -25.5,15.75 -54.29,23.54 -86.78,23.54 -32.11,0 -60.89,-7.79 -86.61,-23.54 -25.47,-15.78 -45.68,-37.36 -60.68,-64.6 -14.99,-27.25 -22.36,-57.8 -22.36,-91.66 0,-34.43 7.37,-65.18 22.36,-92.23 15,-27.23 35.21,-48.83 60.68,-64.59 25.72,-15.76 54.5,-23.74 86.61,-23.74 32.49,0 61.28,7.98 86.78,23.74 25.47,15.76 45.51,37.36 60.11,64.59 14.61,27.05 21.98,57.8 21.98,92.23zm-27.41 0c0,-29.76 -6.03,-56.03 -18.31,-79.18 -12.06,-23.16 -28.78,-41.64 -50.2,-55.08 -21.2,-13.4 -45.54,-20.23 -72.95,-20.23 -27.06,0 -51.16,6.83 -72.78,20.23 -21.59,13.44 -38.52,31.92 -50.77,55.08 -12.27,23.15 -18.48,49.42 -18.48,79.18 0,29.38 6.21,55.46 18.48,78.62 12.25,23.15 29.18,41.44 50.77,54.86 21.62,13.44 45.72,20.24 72.78,20.24 27.41,0 51.75,-6.8 72.95,-20.24 21.42,-13.42 38.14,-31.71 50.2,-54.86 12.28,-23.16 18.31,-49.24 18.31,-78.62zm-153.92 -208.59c-2.15,0 -4.09,-0.96 -5.46,-2.71 -1.34,-1.95 -1.94,-3.89 -1.94,-5.64 0,-2.15 1.16,-5.26 3.31,-8.96l42.62 -63.83c1.34,-2.13 3.49,-4.46 6.42,-7 2.93,-2.52 6.81,-3.89 11.46,-3.89 4.87,0 9.18,1.37 12.49,4.08 3.49,2.73 5.22,7.02 5.22,13.04 0,2.73 -0.38,4.87 -1.34,6.63 -0.99,1.54 -1.94,3.29 -3.31,5.04l-51.58 52.93c-2.33,2.15 -5.04,4.48 -7.97,6.81 -2.93,2.34 -6.25,3.5 -9.92,3.5zm429.83 28.03c28.79,0 52.14,5.84 70.24,17.32 18.09,11.48 31.54,27.05 39.9,46.7 8.36,19.64 12.63,41.44 12.63,65.76l0 209.95c0,3.69 -1.34,7.01 -4.1,9.73 -2.71,2.72 -5.82,4.09 -9.52,4.09 -4.09,0 -7.59,-1.37 -10.13,-4.09 -2.5,-2.72 -3.7,-6.04 -3.7,-9.73l0 -207.22c0,-19.65 -3.28,-37.55 -9.91,-53.51 -6.64,-16.15 -17.11,-28.99 -31.72,-38.53 -14.39,-9.53 -33.27,-14.4 -56.44,-14.4 -20.22,0 -39.87,4.87 -59.13,14.4 -19.26,9.54 -35.03,22.38 -47.69,38.53 -12.63,15.96 -18.84,33.86 -18.84,53.51l0 207.22c0,3.69 -1.38,7.01 -4.09,9.73 -2.72,2.72 -6.04,4.09 -9.74,4.09 -4.09,0 -7.41,-1.37 -9.95,-4.09 -2.5,-2.72 -3.67,-6.04 -3.67,-9.73l0 -315.02c0,-3.7 1.34,-6.81 4.09,-9.54 2.72,-2.73 5.82,-4.08 9.53,-4.08 4.09,0 7.37,1.35 9.91,4.08 2.54,2.73 3.92,5.84 3.92,9.54l0 67.33 -17.15 32.88c0,-16.54 4.27,-32.3 13.06,-47.28 8.74,-15.19 20.03,-28.61 34.25,-40.28 14.18,-11.67 29.95,-20.82 47.06,-27.44 17.15,-6.61 34.26,-9.92 51.19,-9.92zm275.13 362.49c0,11.48 -3.49,22.38 -10.34,32.88 -6.8,10.52 -14.78,19.08 -24.3,25.7 -9.35,6.81 -18.28,10.12 -27.03,10.12 -3.35,0 -6.24,-0.79 -8.78,-2.54 -2.54,-1.55 -3.7,-4.86 -3.7,-9.92 0,-5.06 1.76,-7.78 5.08,-8.36 3.49,-0.39 8.96,-2.34 16.33,-6.04 8.18,-4.08 14.39,-9.15 18.7,-15.17 4.48,-5.84 6.59,-12.46 6.59,-19.86 0,-6.41 -1.55,-11.08 -4.48,-14 -2.92,-2.92 -6.2,-4.48 -9.91,-4.48 -3.32,0 -6.42,0.59 -9.74,1.75 -3.1,1.17 -5.82,2.73 -8.14,4.48 -1.77,-2.33 -3.32,-4.87 -4.49,-7.59 -0.98,-2.72 -1.37,-5.45 -0.98,-8.37 0.98,-5.44 4.27,-10.11 10.33,-14.2 6,-4.09 12.63,-6.22 19.83,-6.22 10.12,0 18.49,4.46 25.12,13.42 6.59,8.75 9.91,18.29 9.91,28.4zm545.22 -516.98c4.06,0 7.37,1.36 9.91,4.28 2.51,2.72 3.71,5.83 3.71,9.52l0 480.42c0,3.69 -1.38,7.01 -4.1,9.73 -2.71,2.72 -5.85,4.09 -9.52,4.09 -4.09,0 -7.62,-1.37 -10.13,-4.09 -2.54,-2.72 -3.7,-6.04 -3.7,-9.73l0 -97.49 11.08 -14.97c0,15.55 -3.5,31.33 -10.69,47.08 -7.2,15.77 -17.32,30.17 -30.34,43.19 -13.05,13.05 -28.22,23.36 -45.54,31.13 -17.33,7.8 -36.2,11.69 -56.24,11.69 -30.16,0 -57.39,-7.79 -81.35,-23.54 -23.92,-15.78 -43,-37.36 -57.01,-64.6 -14,-27.25 -21.02,-57.99 -21.02,-92.43 0,-34.24 7.02,-65 21.02,-92.23 14.01,-27.24 33.09,-48.64 57.01,-64.21 23.96,-15.58 51.19,-23.35 81.35,-23.35 18.88,0 36.76,3.5 53.91,10.69 17.11,7.21 32.28,17.13 45.51,29.98 13.44,12.65 23.95,27.63 31.71,44.95 7.8,17.11 11.68,35.8 11.68,55.84l-11.08 -17.12 0 -265.03c0,-3.69 1.16,-6.8 3.7,-9.52 2.51,-2.92 6.04,-4.28 10.13,-4.28zm-144.18 488.77c26.07,0 49,-6.61 68.86,-19.84 20.04,-13.23 35.6,-31.53 47.1,-54.87 11.46,-23.35 17.11,-50.01 17.11,-79.78 0,-29.78 -5.65,-56.04 -17.11,-79.19 -11.5,-23.17 -27.27,-41.25 -47.31,-54.48 -20.04,-13.43 -42.97,-20.05 -68.65,-20.05 -25.12,0 -47.87,6.62 -68.12,20.05 -20.04,13.23 -35.99,31.31 -47.66,54.48 -11.5,23.15 -17.32,49.41 -17.32,79.19 0,29.38 5.82,55.65 17.32,78.99 11.67,23.36 27.62,41.84 47.66,55.26 20.25,13.44 43,20.24 68.12,20.24zm299.22 5.45c0,3.69 -1.34,7.01 -4.05,9.73 -2.75,2.72 -6.04,4.09 -9.74,4.09 -4.09,0 -7.41,-1.37 -9.91,-4.09 -2.54,-2.72 -3.71,-6.04 -3.71,-9.73l0 -325.91c0,-3.7 1.34,-6.82 4.1,-9.55 2.71,-2.92 5.82,-4.27 9.52,-4.27 4.09,0 7.37,1.35 9.91,4.27 2.54,2.73 3.88,5.85 3.88,9.55l0 325.91zm-13.79 -386.43c-7.2,0 -13.05,-1.95 -17.53,-6.04 -4.27,-4.08 -6.42,-9.52 -6.42,-15.94l0 -5.46c0,-6.41 2.33,-11.67 6.81,-15.75 4.48,-4.09 10.51,-6.23 17.92,-6.23 6.42,0 11.67,2.14 15.94,6.23 4.48,4.08 6.63,9.34 6.63,15.75l0 5.46c0,6.42 -2.15,11.86 -6.63,15.94 -4.27,4.09 -9.91,6.04 -16.72,6.04zm108.55 345.37c-3.28,-5.63 -4.66,-10.11 -4.44,-13.42 0.17,-3.32 1.94,-6.23 5.25,-8.57 2.12,-2.33 5.22,-3.3 9.14,-3.1 3.88,0.18 7.2,1.93 9.91,5.06 11.89,16.92 27.24,30.74 45.72,41.24 18.49,10.51 40.5,15.77 65.58,15.77 14.96,0 29.6,-2.54 43.39,-7.4 14.01,-5.06 25.51,-12.64 34.44,-22.77 8.96,-10.11 13.44,-22.38 13.44,-36.97 0,-15.56 -4.27,-28.02 -13.06,-37.36 -8.74,-9.52 -19.82,-16.92 -33.65,-22.38 -13.83,-5.63 -28.22,-10.1 -43.18,-13.81 -16.16,-4.09 -31.33,-8.76 -45.76,-14.01 -14.39,-5.25 -27.02,-11.86 -38.1,-19.84 -10.9,-7.98 -19.65,-17.52 -26.07,-28.6 -6.45,-11.09 -9.56,-24.13 -9.56,-39.11 0,-17.9 4.87,-33.87 14.4,-48.06 9.52,-14.21 23.17,-25.3 40.46,-33.27 17.32,-7.98 37.57,-12.07 60.54,-12.07 10.9,0 22.57,1.35 34.82,4.27 12.45,2.73 24.9,7.4 37.18,14.02 12.24,6.61 23.74,15.95 34.43,27.83 3.7,2.72 5.26,6.03 5.04,9.91 -0.17,3.9 -1.94,7.4 -5.04,10.52 -2.93,1.75 -5.86,2.72 -9.17,2.72 -3.11,0 -5.82,-1.36 -8.15,-4.09 -11.89,-13.23 -25.68,-22.96 -41.45,-29.38 -15.74,-6.42 -32.67,-9.73 -50.38,-9.73 -15.17,0 -29.39,2.52 -42.44,7.58 -13.02,5.07 -23.53,12.47 -31.89,22.38 -8.18,9.92 -12.28,22.38 -12.28,37.37 0.99,14.2 5.86,25.88 14.78,35.02 8.97,9.15 20.82,16.54 35.64,22.57 14.95,6.04 31.71,11.48 50.58,16.54 14.96,3.69 28.97,7.79 42.02,12.65 13.05,4.86 24.52,10.9 34.43,18.28 9.95,7.21 17.71,16.36 23.35,27.44 5.65,10.9 8.58,24.52 8.58,41.05 0,19.28 -5.26,36.01 -15.56,50.01 -10.34,13.81 -24.34,24.53 -42.44,32.11 -18.1,7.59 -38.7,11.29 -62.05,11.29 -23.96,0 -46.71,-4.87 -68.69,-14.4 -21.98,-9.54 -41.84,-25.29 -59.76,-47.29zm492.87 61.69c-34.43,0 -64.77,-7.39 -91.06,-22 -26.24,-14.59 -47.09,-35.4 -62.26,-62.06 -14.99,-26.67 -22.58,-58.19 -22.58,-94.37 0,-38.34 7.41,-71.03 22.4,-98.08 14.96,-27.03 34.05,-47.86 57.58,-62.26 23.56,-14.4 48.64,-21.59 75.31,-21.59 19.27,0 37.93,3.1 56.24,9.34 18.31,6.03 34.6,15.76 49.03,28.79 14.4,13.05 26.07,29.38 35.03,48.85 8.93,19.25 13.8,42.61 14.79,69.66 0,3.68 -1.38,7 -4.1,9.92 -2.71,2.91 -6.03,4.48 -9.73,4.48l-280 0 -4.1 -26.08 276.72 0 -7.02 6.03 0 -12.25c-2.15,-24.34 -9.91,-44.56 -22.96,-61.1 -13.06,-16.54 -28.61,-29 -47.1,-37.36 -18.27,-8.56 -37.15,-12.84 -56.8,-12.84 -13.82,0 -28.22,3.11 -43.39,9.34 -14.99,6.22 -29,15.56 -41.84,28.21 -12.66,12.65 -23.14,28.41 -31.11,47.66 -8.01,19.28 -12.1,41.65 -12.1,67.14 0,28.02 5.68,53.69 16.75,77.05 11.29,23.16 28.02,42.03 50.2,56.23 22.19,14.2 49.64,21.21 82.1,21.21 15.59,0 30.16,-2.52 43.78,-7.78 13.82,-5.25 26.07,-12.26 37.18,-21.02 11.08,-8.75 19.82,-18.09 26.63,-28.22 3.71,-4.08 7.62,-6.02 11.72,-6.02 3.28,0 6.03,1.17 8.14,3.69 2.33,2.54 3.53,5.25 3.53,8.56 0,3.32 -0.99,6.04 -2.75,8.17 -14.22,18.49 -32.28,34.45 -54.47,48.26 -22.19,13.63 -46.71,20.44 -73.76,20.44zm382.94 -360.36c28.78,0 52.17,5.84 70.23,17.32 18.1,11.48 31.54,27.05 39.9,46.7 8.36,19.64 12.67,41.44 12.67,65.76l0 209.95c0,3.69 -1.38,7.01 -4.09,9.73 -2.72,2.72 -5.86,4.09 -9.53,4.09 -4.09,0 -7.62,-1.37 -10.12,-4.09 -2.54,-2.72 -3.71,-6.04 -3.71,-9.73l0 -207.22c0,-19.65 -3.31,-37.55 -9.91,-53.51 -6.63,-16.15 -17.15,-28.99 -31.75,-38.53 -14.39,-9.53 -33.27,-14.4 -56.41,-14.4 -20.25,0 -39.9,4.87 -59.16,14.4 -19.26,9.54 -35.03,22.38 -47.66,38.53 -12.67,15.96 -18.87,33.86 -18.87,53.51l0 207.22c0,3.69 -1.35,7.01 -4.1,9.73 -2.71,2.72 -6.03,4.09 -9.73,4.09 -4.1,0 -7.38,-1.37 -9.92,-4.09 -2.54,-2.72 -3.7,-6.04 -3.7,-9.73l0 -315.02c0,-3.7 1.38,-6.81 4.09,-9.54 2.72,-2.73 5.86,-4.08 9.53,-4.08 4.09,0 7.4,1.35 9.94,4.08 2.54,2.73 3.89,5.84 3.89,9.54l0 67.33 -17.15 32.88c0,-16.54 4.3,-32.3 13.05,-47.28 8.75,-15.19 20.04,-28.61 34.26,-40.28 14.18,-11.67 29.95,-20.82 47.06,-27.44 17.14,-6.61 34.25,-9.92 51.19,-9.92zm-96.14 -43.19c-6.42,0 -9.91,-2.15 -10.51,-6.22 -0.39,-4.1 0.43,-10.14 2.15,-17.91 4.1,-14.99 11.5,-25.7 21.98,-32.12 10.51,-6.41 21.24,-9.73 32.32,-9.73 7.4,0 14.99,1.96 22.96,5.84 7.97,3.89 16.16,8.18 24.31,13.04 8.39,4.87 16.16,9.15 23.35,13.04 7.41,3.9 14.04,5.84 20.04,5.84 6.81,0 12.28,-2.54 16.37,-7.79 4.09,-5.25 6.98,-12.44 8.36,-21.59 0.39,-3.71 1.73,-6.81 4.09,-8.96 2.33,-2.33 5.26,-3.5 8.93,-3.5 6.84,0 10.51,2.15 10.9,6.62 0.6,4.28 0,9.93 -1.34,16.74 -2.15,11.09 -6.07,19.83 -11.29,26.46 -5.26,6.61 -11.5,11.27 -18.7,14.02 -6.98,2.71 -14.6,4.07 -22.75,4.07 -6.42,0 -13.62,-1.75 -21.42,-5.44 -7.76,-3.71 -15.73,-7.79 -23.74,-12.65 -7.97,-4.88 -15.56,-8.96 -22.93,-12.65 -7.23,-3.71 -13.83,-5.64 -19.86,-5.64 -6.81,0 -12.84,2.14 -17.92,6.6 -5.05,4.3 -9.14,11.69 -12.24,22.38 -0.99,3.12 -2.72,5.46 -5.26,7.21 -2.54,1.56 -5.04,2.34 -7.8,2.34zm650.1 223.75c0,33.86 -7.4,64.41 -21.97,91.66 -14.61,27.24 -34.65,48.82 -60.15,64.6 -25.47,15.75 -54.3,23.54 -86.75,23.54 -32.14,0 -60.93,-7.79 -86.61,-23.54 -25.5,-15.78 -45.72,-37.36 -60.71,-64.6 -14.99,-27.25 -22.37,-57.8 -22.37,-91.66 0,-34.43 7.38,-65.18 22.37,-92.23 14.99,-27.23 35.21,-48.83 60.71,-64.59 25.68,-15.76 54.47,-23.74 86.61,-23.74 32.45,0 61.28,7.98 86.75,23.74 25.5,15.76 45.54,37.36 60.15,64.59 14.57,27.05 21.97,57.8 21.97,92.23zm-27.44 0c0,-29.76 -6.04,-56.03 -18.28,-79.18 -12.06,-23.16 -28.78,-41.64 -50.2,-55.08 -21.2,-13.4 -45.54,-20.23 -72.95,-20.23 -27.06,0 -51.19,6.83 -72.78,20.23 -21.62,13.44 -38.52,31.92 -50.8,55.08 -12.24,23.15 -18.48,49.42 -18.48,79.18 0,29.38 6.24,55.46 18.48,78.62 12.28,23.15 29.18,41.44 50.8,54.86 21.59,13.44 45.72,20.24 72.78,20.24 27.41,0 51.75,-6.8 72.95,-20.24 21.42,-13.42 38.14,-31.71 50.2,-54.86 12.24,-23.16 18.28,-49.24 18.28,-78.62zm563.52 -180.56c4.1,0 7.38,1.35 9.92,4.27 2.54,2.73 3.88,5.85 3.88,9.55l0 306.06c0,35.23 -7.2,65.76 -21.42,91.26 -14.18,25.69 -33.26,45.34 -57.57,59.16 -24.34,13.81 -51.96,20.61 -83.11,20.61 -20.99,0 -39.87,-2.52 -56.62,-7.58 -16.73,-5.07 -30.34,-11.28 -40.86,-18.48 -3.1,-2.34 -5.64,-5.07 -7.58,-8.37 -1.73,-3.31 -1.73,-6.62 0.21,-10.31 1.73,-3.71 4.48,-6.23 7.76,-7.59 3.53,-1.37 6.81,-0.78 9.95,1.55 7.76,4.48 19.65,9.92 35.42,16.35 15.73,6.42 33.44,9.73 53.09,9.73 26.67,0 49.81,-6.23 69.68,-18.68 20.03,-12.26 35.59,-29.58 46.7,-51.56 11.26,-22 16.9,-47.3 16.9,-76.09l0 -50.78 1.38 17.13c-6.42,13.81 -16.34,26.25 -29.39,37.54 -13.02,11.09 -27.62,20.05 -43.78,26.66 -16.16,6.62 -33.09,9.93 -50.37,9.93 -28.44,0 -51.79,-5.64 -69.89,-16.73 -18.06,-11.29 -31.29,-26.67 -39.69,-46.32 -8.36,-19.65 -12.63,-42.8 -12.63,-69.47l0 -214.02c0,-3.7 1.17,-6.82 3.71,-9.55 2.5,-2.92 5.82,-4.27 9.91,-4.27 4.09,0 7.41,1.35 9.91,4.27 2.54,2.73 3.92,5.85 3.92,9.55l0 214.02c0,32.51 7.16,58.39 21.59,77.64 14.39,19.27 38.7,28.8 73.17,28.8 20.6,0 40.07,-5.05 58.56,-15.37 18.48,-10.31 33.83,-23.74 45.72,-40.27 11.85,-16.54 17.88,-33.47 17.88,-50.8l0 -214.02c0,-3.7 1.17,-6.82 3.71,-9.55 2.54,-2.92 5.85,-4.27 9.94,-4.27zm467.75 360.36c-34.43,0 -64.8,-7.39 -91.05,-22 -26.28,-14.59 -47.1,-35.4 -62.26,-62.06 -15,-26.67 -22.58,-58.19 -22.58,-94.37 0,-38.34 7.37,-71.03 22.36,-98.08 15,-27.03 34.08,-47.86 57.61,-62.26 23.53,-14.4 48.65,-21.59 75.29,-21.59 19.26,0 37.95,3.1 56.23,9.34 18.31,6.03 34.64,15.76 49.03,28.79 14.4,13.05 26.07,29.38 35.03,48.85 8.97,19.25 13.83,42.61 14.79,69.66 0,3.68 -1.34,7 -4.1,9.92 -2.71,2.91 -5.99,4.48 -9.73,4.48l-279.97 0 -4.09 -26.08 276.68 0 -6.98 6.03 0 -12.25c-2.15,-24.34 -9.95,-44.56 -22.97,-61.1 -13.05,-16.54 -28.61,-29 -47.09,-37.36 -18.31,-8.56 -37.19,-12.84 -56.83,-12.84 -13.8,0 -28.19,3.11 -43.4,9.34 -14.95,6.22 -28.96,15.56 -41.8,28.21 -12.67,12.65 -23.18,28.41 -31.15,47.66 -7.97,19.28 -12.07,41.65 -12.07,67.14 0,28.02 5.65,53.69 16.73,77.05 11.28,23.16 28.04,42.03 50.23,56.23 22.16,14.2 49.6,21.21 82.09,21.21 15.56,0 30.17,-2.52 43.78,-7.78 13.8,-5.25 26.07,-12.26 37.15,-21.02 11.11,-8.75 19.86,-18.09 26.67,-28.22 3.7,-4.08 7.58,-6.02 11.68,-6.02 3.31,0 6.03,1.17 8.18,3.69 2.33,2.54 3.49,5.25 3.49,8.56 0,3.32 -0.98,6.04 -2.71,8.17 -14.22,18.49 -32.32,34.45 -54.51,48.26 -22.15,13.63 -46.67,20.44 -73.73,20.44zm207.82 -61.69c-3.31,-5.63 -4.69,-10.11 -4.48,-13.42 0.18,-3.32 1.94,-6.23 5.22,-8.57 2.16,-2.33 5.3,-3.3 9.18,-3.1 3.88,0.18 7.19,1.93 9.91,5.06 11.89,16.92 27.23,30.74 45.76,41.24 18.45,10.51 40.46,15.77 65.54,15.77 14.99,0 29.56,-2.54 43.39,-7.4 14.01,-5.06 25.47,-12.64 34.43,-22.77 8.96,-10.11 13.45,-22.38 13.45,-36.97 0,-15.56 -4.27,-28.02 -13.06,-37.36 -8.75,-9.52 -19.82,-16.92 -33.65,-22.38 -13.8,-5.63 -28.22,-10.1 -43.18,-13.81 -16.16,-4.09 -31.33,-8.76 -45.72,-14.01 -14.43,-5.25 -27.06,-11.86 -38.17,-19.84 -10.9,-7.98 -19.65,-17.52 -26.07,-28.6 -6.42,-11.09 -9.53,-24.13 -9.53,-39.11 0,-17.9 4.87,-33.87 14.39,-48.06 9.57,-14.21 23.18,-25.3 40.5,-33.27 17.33,-7.98 37.54,-12.07 60.51,-12.07 10.9,0 22.57,1.35 34.81,4.27 12.46,2.73 24.91,7.4 37.19,14.02 12.24,6.61 23.7,15.95 34.43,27.83 3.7,2.72 5.25,6.03 5.04,9.91 -0.17,3.9 -1.94,7.4 -5.04,10.52 -2.93,1.75 -5.86,2.72 -9.14,2.72 -3.14,0 -5.85,-1.36 -8.18,-4.09 -11.86,-13.23 -25.69,-22.96 -41.45,-29.38 -15.77,-6.42 -32.67,-9.73 -50.42,-9.73 -15.13,0 -29.35,2.52 -42.4,7.58 -13.02,5.07 -23.53,12.47 -31.89,22.38 -8.19,9.92 -12.28,22.38 -12.28,37.37 0.99,14.2 5.86,25.88 14.78,35.02 8.96,9.15 20.82,16.54 35.63,22.57 14.96,6.04 31.72,11.48 50.59,16.54 14.96,3.69 28.97,7.79 42.02,12.65 13.05,4.86 24.52,10.9 34.46,18.28 9.88,7.21 17.71,16.36 23.32,27.44 5.65,10.9 8.58,24.52 8.58,41.05 0,19.28 -5.26,36.01 -15.6,50.01 -10.3,13.81 -24.3,24.53 -42.37,32.11 -18.13,7.59 -38.73,11.29 -62.08,11.29 -23.96,0 -46.71,-4.87 -68.69,-14.4 -22.01,-9.54 -41.84,-25.29 -59.73,-47.29zm306.85 -290.31l159.14 0c3.7,0 6.63,1.37 9.17,4.08 2.51,2.73 3.88,5.65 3.88,8.96 0,3.7 -1.37,6.82 -3.88,9.33 -2.54,2.54 -5.47,3.71 -9.17,3.71l-159.14 0c-3.32,0 -6.24,-1.37 -8.96,-4.08 -2.72,-2.92 -4.09,-5.84 -4.09,-8.96 0,-3.69 1.37,-6.81 4.09,-9.33 2.72,-2.54 5.64,-3.71 8.96,-3.71zm69.85 -100.98c4.09,0 7.37,1.35 9.91,4.08 2.54,2.73 3.88,5.84 3.88,9.54l0 357.64c0,15.17 1.98,26.25 5.86,33.46 3.88,7.01 8.75,11.48 14.78,13.61 6.03,2.15 11.68,3.13 17.11,3.13 3.32,0 6.03,-0.4 8.19,-1.36 2.32,-0.98 5.04,-1.37 8.36,-1.37 3.1,0 5.85,1.37 8.18,3.9 2.33,2.51 3.49,5.25 3.49,8.35 0,4.1 -2.71,7.8 -7.97,10.71 -5.26,2.92 -11.89,4.48 -19.65,4.48 -2.72,0 -7.58,-0.21 -14.78,-0.4 -7.02,-0.18 -14.61,-2.33 -22.58,-6.23 -7.97,-3.88 -14.78,-10.89 -20.25,-21.21 -5.43,-10.3 -8.15,-25.48 -8.15,-45.53l0 -359.18c0,-3.7 1.34,-6.81 4.06,-9.54 2.75,-2.73 5.86,-4.08 9.56,-4.08zm192.23 446.17c-4.09,0 -7.41,-1.37 -9.91,-4.09 -2.54,-2.72 -3.71,-6.04 -3.71,-9.73l0 -315.02c0,-3.7 1.38,-6.81 4.09,-9.54 2.72,-2.73 5.82,-4.08 9.53,-4.08 4.09,0 7.41,1.35 9.95,4.08 2.5,2.73 3.88,5.84 3.88,9.54l0 115.97 -11.68 17.89c0,-17.69 3.11,-35.79 9.14,-54.09 6.21,-18.48 15.38,-35.4 27.23,-51.16 11.89,-15.77 26.46,-28.61 43.61,-38.53 17.11,-9.93 36.97,-14.79 59.33,-14.79 6.42,0 13.23,0.97 20.43,2.73 7.41,1.75 11.08,6.22 11.08,13.02 0,4.09 -1.17,7.6 -3.5,10.32 -2.11,2.73 -5.04,4.08 -8.75,4.08 -2.71,0 -6.03,-0.96 -9.91,-2.91 -3.88,-2.14 -9.52,-3.11 -16.93,-3.11 -14.57,0 -29,4.27 -43.22,13.04 -14.18,8.75 -27.02,20.23 -38.7,34.63 -11.67,14.4 -21.02,30.16 -27.83,47.08 -6.81,16.94 -10.3,33.28 -10.3,49.24l0 171.61c0,3.69 -1.38,7.01 -4.09,9.73 -2.72,2.72 -6.04,4.09 -9.74,4.09zm497.73 -342.46c4.1,0 7.41,1.35 9.92,4.08 2.54,2.73 3.7,5.84 3.7,9.54l0 199.83c0,44.37 -12.45,77.64 -37.36,99.82 -24.91,22.18 -58,33.28 -99.24,33.28 -40.64,0 -73.51,-11.1 -98.46,-33.28 -24.9,-22.18 -37.35,-55.45 -37.35,-99.82l0 -199.83c0,-3.7 1.37,-6.81 4.09,-9.54 2.71,-2.73 5.85,-4.08 9.52,-4.08 4.09,0 7.41,1.35 9.95,4.08 2.51,2.73 3.88,5.84 3.88,9.54l0 199.83c0,34.82 9.74,61.29 29.18,79.59 19.47,18.29 45.93,27.43 79.19,27.43 33.87,0 60.54,-9.14 79.98,-27.43 19.47,-18.3 29.17,-44.77 29.17,-79.59l0 -199.83c0,-3.7 1.17,-6.81 3.71,-9.54 2.54,-2.73 6.03,-4.08 10.12,-4.08zm279.23 -11.09c20.6,0 39.9,2.34 57.96,7 18.1,4.48 32.91,10.5 43.99,18.1 11.29,7.59 16.93,15.37 16.93,23.74 0,3.11 -1.37,6.23 -3.91,9.15 -2.51,2.91 -5.44,4.46 -9.14,4.46 -5.04,0 -9.14,-1.35 -12.03,-4.09 -2.93,-2.71 -6.07,-6.02 -9.35,-9.91 -3.14,-3.9 -8.18,-7.4 -14.99,-10.7 -6.42,-3.11 -15.56,-5.85 -27.24,-8.18 -11.67,-2.33 -25.89,-3.5 -42.79,-3.5 -26.67,0 -50.8,6.83 -72.81,20.63 -21.98,13.82 -39.48,32.11 -52.53,55.26 -13.02,23.15 -19.44,49.03 -19.44,77.83 0,29.38 6.03,55.65 18.1,78.99 12.24,23.36 29.17,41.84 50.76,55.26 21.81,13.44 47.1,20.24 75.92,20.24 20.6,0 36.16,-1.94 46.89,-5.84 10.69,-3.89 20.03,-8.16 27.8,-12.65 9.73,-5.44 16.36,-10.69 20.03,-15.75 3.71,-5.06 7.98,-7.59 13.06,-7.59 3.7,0 6.42,1.17 8.57,3.5 2.11,2.13 3.1,5.26 3.1,8.94 0,5.46 -5.04,12.65 -15.17,21.61 -9.91,8.76 -24.13,16.74 -42.22,23.55 -18.1,6.81 -39.52,10.31 -64.25,10.31 -33.26,0 -62.82,-7.79 -88.51,-23.54 -25.5,-15.78 -45.54,-37.36 -60.11,-64.6 -14.43,-27.25 -21.59,-57.99 -21.59,-92.43 0,-31.91 7.16,-61.5 21.59,-88.73 14.57,-27.24 34.61,-49.22 60.5,-65.96 25.89,-16.74 56.06,-25.1 90.88,-25.1zm171.8 8.36l159.17 0c3.67,0 6.6,1.37 9.14,4.08 2.54,2.73 3.88,5.65 3.88,8.96 0,3.7 -1.34,6.82 -3.88,9.33 -2.54,2.54 -5.47,3.71 -9.14,3.71l-159.17 0c-3.32,0 -6.24,-1.37 -8.96,-4.08 -2.72,-2.92 -4.09,-5.84 -4.09,-8.96 0,-3.69 1.37,-6.81 4.09,-9.33 2.72,-2.54 5.64,-3.71 8.96,-3.71zm69.85 -100.98c4.09,0 7.41,1.35 9.95,4.08 2.5,2.73 3.88,5.84 3.88,9.54l0 357.64c0,15.17 1.94,26.25 5.85,33.46 3.88,7.01 8.75,11.48 14.75,13.61 6.07,2.15 11.71,3.13 17.15,3.13 3.31,0 6.03,-0.4 8.14,-1.36 2.33,-0.98 5.08,-1.37 8.4,-1.37 3.11,0 5.82,1.37 8.19,3.9 2.32,2.51 3.45,5.25 3.45,8.35 0,4.1 -2.71,7.8 -7.97,10.71 -5.26,2.92 -11.85,4.48 -19.65,4.48 -2.72,0 -7.58,-0.21 -14.78,-0.4 -6.99,-0.18 -14.61,-2.33 -22.58,-6.23 -7.97,-3.88 -14.78,-10.89 -20.21,-21.21 -5.47,-10.3 -8.19,-25.48 -8.19,-45.53l0 -359.18c0,-3.7 1.38,-6.81 4.09,-9.54 2.72,-2.73 5.83,-4.08 9.53,-4.08zm437.41 103.71c4.09,0 7.41,1.35 9.95,4.08 2.5,2.73 3.67,5.84 3.67,9.54l0 199.83c0,44.37 -12.42,77.64 -37.33,99.82 -24.94,22.18 -57.99,33.28 -99.27,33.28 -40.64,0 -73.52,-11.1 -98.42,-33.28 -24.95,-22.18 -37.36,-55.45 -37.36,-99.82l0 -199.83c0,-3.7 1.34,-6.81 4.05,-9.54 2.75,-2.73 5.86,-4.08 9.56,-4.08 4.06,0 7.38,1.35 9.92,4.08 2.5,2.73 3.88,5.84 3.88,9.54l0 199.83c0,34.82 9.73,61.29 29.21,79.59 19.43,18.29 45.89,27.43 79.16,27.43 33.87,0 60.54,-9.14 79.97,-27.43 19.48,-18.3 29.21,-44.77 29.21,-79.59l0 -199.83c0,-3.7 1.17,-6.81 3.71,-9.54 2.5,-2.73 6.03,-4.08 10.09,-4.08zm141.29 342.46c-4.1,0 -7.41,-1.37 -9.95,-4.09 -2.54,-2.72 -3.67,-6.04 -3.67,-9.73l0 -315.02c0,-3.7 1.34,-6.81 4.06,-9.54 2.75,-2.73 5.85,-4.08 9.56,-4.08 4.05,0 7.37,1.35 9.91,4.08 2.54,2.73 3.88,5.84 3.88,9.54l0 115.97 -11.68 17.89c0,-17.69 3.11,-35.79 9.17,-54.09 6.21,-18.48 15.35,-35.4 27.2,-51.16 11.89,-15.77 26.5,-28.61 43.61,-38.53 17.11,-9.93 36.97,-14.79 59.33,-14.79 6.43,0 13.27,0.97 20.47,2.73 7.37,1.75 11.07,6.22 11.07,13.02 0,4.09 -1.16,7.6 -3.49,10.32 -2.15,2.73 -5.04,4.08 -8.78,4.08 -2.72,0 -6,-0.96 -9.92,-2.91 -3.88,-2.14 -9.52,-3.11 -16.89,-3.11 -14.65,0 -29,4.27 -43.22,13.04 -14.22,8.75 -27.06,20.23 -38.74,34.63 -11.67,14.4 -20.99,30.16 -27.79,47.08 -6.81,16.94 -10.34,33.28 -10.34,49.24l0 171.61c0,3.69 -1.34,7.01 -4.09,9.73 -2.72,2.72 -6.04,4.09 -9.7,4.09zm522.42 -342.46c4.1,0 7.38,1.35 9.92,4.08 2.54,2.73 3.7,5.84 3.7,9.54l0 315.02c0,3.69 -1.34,7.01 -4.09,9.73 -2.72,2.72 -5.82,4.09 -9.53,4.09 -4.09,0 -7.58,-1.37 -10.12,-4.09 -2.54,-2.72 -3.7,-6.04 -3.7,-9.73l0 -97.49 11.11 -8.76c0,14.61 -3.71,29.59 -11.11,44.57 -7.2,14.99 -17.29,28.8 -30.17,41.24 -12.84,12.27 -28.01,22.2 -45.33,29.78 -17.32,7.59 -36.16,11.29 -56.23,11.29 -30.52,0 -58,-7.98 -82.13,-23.94 -23.92,-16.14 -42.75,-37.75 -56.58,-65.18 -13.83,-27.44 -20.64,-58.38 -20.64,-92.81 0,-34.84 6.98,-65.57 21.02,-92.23 14.01,-26.67 33.06,-47.67 57.01,-63.05 23.92,-15.38 51.19,-23.15 81.32,-23.15 19.65,0 38.35,3.5 55.67,10.69 17.32,7.21 32.49,17.13 45.51,29.98 13.05,12.65 23.35,27.63 30.55,44.95 7.4,17.11 11.11,35.8 11.11,55.84l-11.11 -17.12 0 -99.63c0,-3.7 1.16,-6.81 3.7,-9.54 2.54,-2.73 6.03,-4.08 10.12,-4.08zm-144.18 323.19c25.69,0 48.65,-6.8 68.69,-20.24 20.04,-13.42 35.81,-31.9 47.27,-55.44 11.47,-23.55 17.15,-50.41 17.15,-80.17 0,-28.21 -5.68,-53.9 -17.15,-77.05 -11.46,-23.16 -27.23,-41.64 -47.27,-55.08 -20.04,-13.4 -43,-20.23 -68.69,-20.23 -25.08,0 -47.87,6.62 -68.12,19.65 -20.03,13.04 -35.98,30.94 -47.66,53.91 -11.5,22.75 -17.32,49.03 -17.32,78.8 0,29.76 5.65,56.62 17.15,80.17 11.46,23.54 27.23,42.02 47.27,55.44 20.04,13.44 43,20.24 68.68,20.24zm740.77 -488.77c4.09,0 7.37,1.36 9.91,4.28 2.54,2.72 3.7,5.83 3.7,9.52l0 480.42c0,3.69 -1.37,7.01 -4.09,9.73 -2.75,2.72 -5.82,4.09 -9.52,4.09 -4.1,0 -7.62,-1.37 -10.13,-4.09 -2.54,-2.72 -3.7,-6.04 -3.7,-9.73l0 -97.49 11.11 -14.97c0,15.55 -3.53,31.33 -10.72,47.08 -7.2,15.77 -17.33,30.17 -30.34,43.19 -13.06,13.05 -28.22,23.36 -45.55,31.13 -17.32,7.8 -36.19,11.69 -56.23,11.69 -30.16,0 -57.4,-7.79 -81.31,-23.54 -23.96,-15.78 -43.01,-37.36 -57.05,-64.6 -14,-27.25 -20.99,-57.99 -20.99,-92.43 0,-34.24 6.99,-65 20.99,-92.23 14.04,-27.24 33.09,-48.64 57.05,-64.21 23.91,-15.58 51.15,-23.35 81.31,-23.35 18.87,0 36.76,3.5 53.91,10.69 17.11,7.21 32.27,17.13 45.5,29.98 13.44,12.65 23.96,27.63 31.72,44.95 7.79,17.11 11.71,35.8 11.71,55.84l-11.11 -17.12 0 -265.03c0,-3.69 1.16,-6.8 3.7,-9.52 2.51,-2.92 6.03,-4.28 10.13,-4.28zm-144.18 488.77c26.03,0 49.03,-6.61 68.86,-19.84 20.04,-13.23 35.63,-31.53 47.09,-54.87 11.47,-23.35 17.11,-50.01 17.11,-79.78 0,-29.78 -5.64,-56.04 -17.11,-79.19 -11.46,-23.17 -27.23,-41.25 -47.27,-54.48 -20.04,-13.43 -43,-20.05 -68.68,-20.05 -25.12,0 -47.88,6.62 -68.12,20.05 -20.04,13.23 -35.99,31.31 -47.66,54.48 -11.51,23.15 -17.33,49.41 -17.33,79.19 0,29.38 5.82,55.65 17.33,78.99 11.67,23.36 27.62,41.84 47.66,55.26 20.24,13.44 43,20.24 68.12,20.24zm426.29 26.08c-34.43,0 -64.77,-7.39 -91.05,-22 -26.28,-14.59 -47.09,-35.4 -62.26,-62.06 -15,-26.67 -22.58,-58.19 -22.58,-94.37 0,-38.34 7.41,-71.03 22.4,-98.08 14.96,-27.03 34.04,-47.86 57.57,-62.26 23.57,-14.4 48.65,-21.59 75.32,-21.59 19.26,0 37.92,3.1 56.23,9.34 18.28,6.03 34.61,15.76 49,28.79 14.43,13.05 26.11,29.38 35.04,48.85 8.96,19.25 13.82,42.61 14.81,69.66 0,3.68 -1.37,7 -4.09,9.92 -2.72,2.91 -6.03,4.48 -9.74,4.48l-280 0 -4.09 -26.08 276.72 0 -7.02 6.03 0 -12.25c-2.15,-24.34 -9.91,-44.56 -22.97,-61.1 -13.05,-16.54 -28.61,-29 -47.09,-37.36 -18.28,-8.56 -37.15,-12.84 -56.8,-12.84 -13.83,0 -28.22,3.11 -43.43,9.34 -14.95,6.22 -28.96,15.56 -41.8,28.21 -12.66,12.65 -23.14,28.41 -31.15,47.66 -7.97,19.28 -12.07,41.65 -12.07,67.14 0,28.02 5.65,53.69 16.76,77.05 11.26,23.16 28.01,42.03 50.2,56.23 22.16,14.2 49.6,21.21 82.09,21.21 15.6,0 30.17,-2.52 43.78,-7.78 13.83,-5.25 26.07,-12.26 37.19,-21.02 11.07,-8.75 19.82,-18.09 26.63,-28.22 3.7,-4.08 7.59,-6.02 11.68,-6.02 3.31,0 6.07,1.17 8.18,3.69 2.33,2.54 3.49,5.25 3.49,8.56 0,3.32 -0.95,6.04 -2.71,8.17 -14.22,18.49 -32.28,34.45 -54.47,48.26 -22.19,13.63 -46.71,20.44 -73.77,20.44zm443.45 -20.63c0,3.69 -1.35,7.01 -4.27,9.73 -2.72,2.72 -5.82,4.09 -9.53,4.09 -4.09,0 -7.62,-1.37 -10.12,-4.09 -2.54,-2.72 -3.71,-6.04 -3.71,-9.73l0 -480.42c0,-3.69 1.38,-6.8 4.09,-9.52 2.93,-2.92 6.04,-4.28 9.74,-4.28 4.06,0 7.37,1.36 9.91,4.28 2.54,2.72 3.89,5.83 3.89,9.52l0 480.42zm400.82 -328.64c4.09,0 7.41,1.35 9.95,4.08 2.54,2.73 3.7,5.84 3.7,9.54l0 315.02c0,3.69 -1.37,7.01 -4.09,9.73 -2.71,2.72 -5.85,4.09 -9.56,4.09 -4.06,0 -7.58,-1.37 -10.09,-4.09 -2.54,-2.72 -3.7,-6.04 -3.7,-9.73l0 -97.49 11.07 -8.76c0,14.61 -3.7,29.59 -11.07,44.57 -7.2,14.99 -17.32,28.8 -30.16,41.24 -12.85,12.27 -28.02,22.2 -45.34,29.78 -17.32,7.59 -36.19,11.29 -56.23,11.29 -30.55,0 -58,-7.98 -82.13,-23.94 -23.91,-16.14 -42.79,-37.75 -56.62,-65.18 -13.79,-27.44 -20.6,-58.38 -20.6,-92.81 0,-34.84 6.99,-65.57 20.99,-92.23 14.01,-26.67 33.09,-47.67 57.01,-63.05 23.95,-15.38 51.19,-23.15 81.35,-23.15 19.65,0 38.35,3.5 55.63,10.69 17.32,7.21 32.49,17.13 45.55,29.98 13.05,12.65 23.35,27.63 30.55,44.95 7.37,17.11 11.07,35.8 11.07,55.84l-11.07 -17.12 0 -99.63c0,-3.7 1.16,-6.81 3.7,-9.54 2.51,-2.73 6.03,-4.08 10.09,-4.08zm-144.18 323.19c25.72,0 48.65,-6.8 68.69,-20.24 20.03,-13.42 35.8,-31.9 47.3,-55.44 11.47,-23.55 17.11,-50.41 17.11,-80.17 0,-28.21 -5.64,-53.9 -17.11,-77.05 -11.5,-23.16 -27.27,-41.64 -47.3,-55.08 -20.04,-13.4 -42.97,-20.23 -68.69,-20.23 -25.08,0 -47.84,6.62 -68.09,19.65 -20.03,13.04 -36.01,30.94 -47.66,53.91 -11.5,22.75 -17.32,49.03 -17.32,78.8 0,29.76 5.65,56.62 17.11,80.17 11.47,23.54 27.24,42.02 47.31,55.44 20.04,13.44 42.97,20.24 68.65,20.24zm608.86 -334.28c20.6,0 39.86,2.34 57.96,7 18.1,4.48 32.88,10.5 43.99,18.1 11.29,7.59 16.94,15.37 16.94,23.74 0,3.11 -1.38,6.23 -3.92,9.15 -2.5,2.91 -5.43,4.46 -9.14,4.46 -5.04,0 -9.13,-1.35 -12.06,-4.09 -2.93,-2.71 -6.03,-6.02 -9.35,-9.91 -3.1,-3.9 -8.15,-7.4 -14.96,-10.7 -6.42,-3.11 -15.59,-5.85 -27.23,-8.18 -11.68,-2.33 -25.9,-3.5 -42.83,-3.5 -26.67,0 -50.8,6.83 -72.78,20.63 -21.98,13.82 -39.51,32.11 -52.53,55.26 -13.01,23.15 -19.47,49.03 -19.47,77.83 0,29.38 6.03,55.65 18.1,78.99 12.27,23.36 29.21,41.84 50.8,55.26 21.8,13.44 47.09,20.24 75.88,20.24 20.64,0 36.2,-1.94 46.88,-5.84 10.73,-3.89 20.08,-8.16 27.84,-12.65 9.74,-5.44 16.33,-10.69 20.04,-15.75 3.7,-5.06 7.97,-7.59 13.05,-7.59 3.67,0 6.42,1.17 8.54,3.5 2.15,2.13 3.14,5.26 3.14,8.94 0,5.46 -5.08,12.65 -15.21,21.61 -9.91,8.76 -24.09,16.74 -42.19,23.55 -18.1,6.81 -39.51,10.31 -64.24,10.31 -33.27,0 -62.83,-7.79 -88.51,-23.54 -25.51,-15.78 -45.55,-37.36 -60.15,-64.6 -14.4,-27.25 -21.59,-57.99 -21.59,-92.43 0,-31.91 7.19,-61.5 21.59,-88.73 14.6,-27.24 34.64,-49.22 60.53,-65.96 25.9,-16.74 56.03,-25.1 90.88,-25.1zm230.75 339.73c0,3.69 -1.37,7.01 -4.09,9.73 -2.72,2.72 -6.03,4.09 -9.7,4.09 -4.09,0 -7.41,-1.37 -9.95,-4.09 -2.5,-2.72 -3.7,-6.04 -3.7,-9.73l0 -325.91c0,-3.7 1.37,-6.82 4.09,-9.55 2.71,-2.92 5.85,-4.27 9.56,-4.27 4.06,0 7.37,1.35 9.91,4.27 2.51,2.73 3.88,5.85 3.88,9.55l0 325.91zm-13.79 -386.43c-7.23,0 -13.05,-1.95 -17.53,-6.04 -4.27,-4.08 -6.43,-9.52 -6.43,-15.94l0 -5.46c0,-6.41 2.33,-11.67 6.81,-15.75 4.48,-4.09 10.52,-6.23 17.92,-6.23 6.43,0 11.65,2.14 15.95,6.23 4.48,4.08 6.6,9.34 6.6,15.75l0 5.46c0,6.42 -2.12,11.86 -6.6,15.94 -4.3,4.09 -9.91,6.04 -16.72,6.04zm282.33 407.06c-34.47,0 -64.81,-7.39 -91.06,-22 -26.28,-14.59 -47.13,-35.4 -62.3,-62.06 -14.95,-26.67 -22.57,-58.19 -22.57,-94.37 0,-38.34 7.4,-71.03 22.4,-98.08 14.96,-27.03 34.04,-47.86 57.57,-62.26 23.57,-14.4 48.68,-21.59 75.32,-21.59 19.26,0 37.92,3.1 56.23,9.34 18.31,6.03 34.64,15.76 49.04,28.79 14.39,13.05 26.07,29.38 35.03,48.85 8.96,19.25 13.79,42.61 14.78,69.66 0,3.68 -1.38,7 -4.09,9.92 -2.72,2.91 -6.03,4.48 -9.74,4.48l-280 0 -4.06 -26.08 276.69 0 -7.02 6.03 0 -12.25c-2.12,-24.34 -9.92,-44.56 -22.97,-61.1 -13.02,-16.54 -28.61,-29 -47.06,-37.36 -18.31,-8.56 -37.18,-12.84 -56.83,-12.84 -13.83,0 -28.22,3.11 -43.39,9.34 -15,6.22 -29,15.56 -41.84,28.21 -12.67,12.65 -23.14,28.41 -31.12,47.66 -8.01,19.28 -12.1,41.65 -12.1,67.14 0,28.02 5.68,53.69 16.76,77.05 11.29,23.16 28.05,42.03 50.2,56.23 22.19,14.2 49.64,21.21 82.13,21.21 15.55,0 30.16,-2.52 43.78,-7.78 13.79,-5.25 26.07,-12.26 37.14,-21.02 11.12,-8.75 19.87,-18.09 26.67,-28.22 3.71,-4.08 7.59,-6.02 11.68,-6.02 3.28,0 6.03,1.17 8.15,3.69 2.33,2.54 3.53,5.25 3.53,8.56 0,3.32 -0.99,6.04 -2.72,8.17 -14.22,18.49 -32.31,34.45 -54.5,48.26 -22.19,13.63 -46.71,20.44 -73.73,20.44zm382.94 -360.36c28.78,0 52.14,5.84 70.23,17.32 18.07,11.48 31.51,27.05 39.87,46.7 8.36,19.64 12.66,41.44 12.66,65.76l0 209.95c0,3.69 -1.37,7.01 -4.09,9.73 -2.72,2.72 -5.85,4.09 -9.52,4.09 -4.1,0 -7.62,-1.37 -10.13,-4.09 -2.54,-2.72 -3.7,-6.04 -3.7,-9.73l0 -207.22c0,-19.65 -3.32,-37.55 -9.92,-53.51 -6.63,-16.15 -17.14,-28.99 -31.75,-38.53 -14.35,-9.53 -33.26,-14.4 -56.4,-14.4 -20.25,0 -39.9,4.87 -59.17,14.4 -19.22,9.54 -34.99,22.38 -47.66,38.53 -12.66,15.96 -18.87,33.86 -18.87,53.51l0 207.22c0,3.69 -1.34,7.01 -4.09,9.73 -2.72,2.72 -6.03,4.09 -9.74,4.09 -4.06,0 -7.37,-1.37 -9.91,-4.09 -2.54,-2.72 -3.71,-6.04 -3.71,-9.73l0 -315.02c0,-3.7 1.38,-6.81 4.1,-9.54 2.75,-2.73 5.85,-4.08 9.52,-4.08 4.09,0 7.41,1.35 9.95,4.08 2.54,2.73 3.88,5.84 3.88,9.54l0 67.33 -17.11 32.88c0,-16.54 4.27,-32.3 13.02,-47.28 8.75,-15.19 20.04,-28.61 34.25,-40.28 14.22,-11.67 29.95,-20.82 47.1,-27.44 17.11,-6.61 34.22,-9.92 51.19,-9.92zm388.33 0c20.64,0 39.9,2.34 58,7 18.1,4.48 32.88,10.5 43.96,18.1 11.32,7.59 16.93,15.37 16.93,23.74 0,3.11 -1.34,6.23 -3.88,9.15 -2.54,2.91 -5.43,4.46 -9.14,4.46 -5.04,0 -9.13,-1.35 -12.06,-4.09 -2.93,-2.71 -6.03,-6.02 -9.35,-9.91 -3.1,-3.9 -8.15,-7.4 -14.96,-10.7 -6.42,-3.11 -15.59,-5.85 -27.27,-8.18 -11.67,-2.33 -25.86,-3.5 -42.79,-3.5 -26.67,0 -50.8,6.83 -72.78,20.63 -21.98,13.82 -39.51,32.11 -52.53,55.26 -13.05,23.15 -19.43,49.03 -19.43,77.83 0,29.38 5.99,55.65 18.06,78.99 12.27,23.36 29.21,41.84 50.8,55.26 21.76,13.44 47.06,20.24 75.88,20.24 20.6,0 36.2,-1.94 46.88,-5.84 10.73,-3.89 20.04,-8.16 27.84,-12.65 9.74,-5.44 16.33,-10.69 20.04,-15.75 3.7,-5.06 7.97,-7.59 13.05,-7.59 3.7,0 6.42,1.17 8.54,3.5 2.15,2.13 3.1,5.26 3.1,8.94 0,5.46 -5.04,12.65 -15.17,21.61 -9.91,8.76 -24.13,16.74 -42.23,23.55 -18.06,6.81 -39.47,10.31 -64.2,10.31 -33.27,0 -62.83,-7.79 -88.51,-23.54 -25.51,-15.78 -45.55,-37.36 -60.15,-64.6 -14.4,-27.25 -21.59,-57.99 -21.59,-92.43 0,-31.91 7.19,-61.5 21.59,-88.73 14.6,-27.24 34.64,-49.22 60.53,-65.96 25.86,-16.74 56.03,-25.1 90.84,-25.1zm230.79 339.73c0,3.69 -1.37,7.01 -4.09,9.73 -2.72,2.72 -6.03,4.09 -9.74,4.09 -4.09,0 -7.37,-1.37 -9.91,-4.09 -2.54,-2.72 -3.7,-6.04 -3.7,-9.73l0 -325.91c0,-3.7 1.37,-6.82 4.09,-9.55 2.71,-2.92 5.82,-4.27 9.52,-4.27 4.1,0 7.41,1.35 9.92,4.27 2.54,2.73 3.91,5.85 3.91,9.55l0 325.91zm-13.83 -386.43c-7.19,0 -13.01,-1.95 -17.49,-6.04 -4.27,-4.08 -6.43,-9.52 -6.43,-15.94l0 -5.46c0,-6.41 2.33,-11.67 6.81,-15.75 4.48,-4.09 10.52,-6.23 17.89,-6.23 6.42,0 11.68,2.14 15.98,6.23 4.48,4.08 6.6,9.34 6.6,15.75l0 5.46c0,6.42 -2.12,11.86 -6.6,15.94 -4.3,4.09 -9.95,6.04 -16.76,6.04zm411.34 57.79c4.09,0 7.41,1.35 9.95,4.08 2.5,2.73 3.67,5.84 3.67,9.54l0 315.02c0,3.69 -1.34,7.01 -4.06,9.73 -2.75,2.72 -5.85,4.09 -9.56,4.09 -4.09,0 -7.58,-1.37 -10.09,-4.09 -2.54,-2.72 -3.74,-6.04 -3.74,-9.73l0 -97.49 11.12 -8.76c0,14.61 -3.71,29.59 -11.12,44.57 -7.16,14.99 -17.28,28.8 -30.12,41.24 -12.85,12.27 -28.05,22.2 -45.34,29.78 -17.32,7.59 -36.23,11.29 -56.26,11.29 -30.55,0 -57.97,-7.98 -82.1,-23.94 -23.91,-16.14 -42.82,-37.75 -56.62,-65.18 -13.83,-27.44 -20.63,-58.38 -20.63,-92.81 0,-34.84 7.02,-65.57 21.02,-92.23 14.01,-26.67 33.09,-47.67 57.01,-63.05 23.95,-15.38 51.15,-23.15 81.32,-23.15 19.68,0 38.34,3.5 55.66,10.69 17.33,7.21 32.49,17.13 45.51,29.98 13.06,12.65 23.39,27.63 30.55,44.95 7.41,17.11 11.12,35.8 11.12,55.84l-11.12 -17.12 0 -99.63c0,-3.7 1.2,-6.81 3.74,-9.54 2.51,-2.73 6,-4.08 10.09,-4.08zm-144.18 323.19c25.68,0 48.65,-6.8 68.69,-20.24 20.04,-13.42 35.8,-31.9 47.27,-55.44 11.5,-23.55 17.14,-50.41 17.14,-80.17 0,-28.21 -5.64,-53.9 -17.14,-77.05 -11.47,-23.16 -27.23,-41.64 -47.27,-55.08 -20.04,-13.4 -43.01,-20.23 -68.69,-20.23 -25.12,0 -47.84,6.62 -68.08,19.65 -20.04,13.04 -36.02,30.94 -47.66,53.91 -11.51,22.75 -17.36,49.03 -17.36,78.8 0,29.76 5.68,56.62 17.14,80.17 11.47,23.54 27.24,42.02 47.28,55.44 20.03,13.44 43,20.24 68.68,20.24zm267.76 19.27c-6.03,0 -10.51,-2.14 -13.83,-6.23 -3.32,-4.08 -4.87,-9.15 -4.87,-14.98l0 -15.96c0,-6.42 1.55,-11.49 4.87,-15.37 3.32,-3.89 7.8,-5.84 13.83,-5.84l2.72 0c6.42,0 11.07,1.95 14,5.84 2.93,3.88 4.48,8.95 4.48,15.37l0 15.96c0,5.83 -1.55,10.9 -4.48,14.98 -2.93,4.09 -7.58,6.23 -14,6.23l-2.72 0z"/>
  <path class="fil0" d="M11469.22 15717.3c-251.06,0 -482.8,-43.45 -695.24,-135.19 -217.26,-86.9 -405.55,-212.43 -564.87,-371.75 -164.15,-159.33 -289.68,-342.79 -376.59,-555.22 -91.73,-207.61 -135.18,-434.53 -135.18,-680.75 0,-246.23 43.45,-473.15 135.18,-685.58 86.91,-207.61 212.44,-395.9 376.59,-555.22 159.32,-159.33 347.61,-280.03 564.87,-371.76 217.27,-86.9 449.01,-130.36 695.24,-130.36 178.63,0 352.44,24.14 521.42,67.6 168.98,48.28 323.48,115.87 468.32,202.77 140.01,86.91 265.54,193.12 376.59,318.65l-342.79 347.62c-130.36,-149.67 -280.03,-265.54 -458.66,-347.62 -178.64,-82.07 -366.93,-120.7 -564.88,-120.7 -178.64,0 -347.62,33.8 -497.29,96.56 -149.67,62.77 -284.85,154.5 -395.89,270.37 -111.05,115.87 -202.78,251.06 -265.54,400.73 -62.77,154.49 -96.56,323.47 -96.56,506.94 0,178.63 33.79,347.61 96.56,502.11 62.76,154.5 154.49,289.68 270.36,400.72 111.05,115.88 246.23,207.61 400.73,270.37 154.5,62.77 323.48,96.56 502.11,96.56 197.95,0 381.42,-38.62 555.22,-120.7 173.81,-77.25 323.48,-188.29 449.01,-328.3l333.13 337.96c-111.04,120.7 -236.57,222.09 -376.58,308.99 -144.84,91.73 -299.34,159.33 -463.49,202.78 -168.98,48.28 -337.96,72.42 -511.77,72.42zm1849.13 -53.11l0 -3379.61 511.77 0 0 1448.41 1791.19 0 0 -1448.41 511.77 0 0 3379.61 -511.77 0 0 -1472.54 -1791.19 0 0 1472.54 -511.77 0zm4876.29 53.11c-294.51,0 -545.56,-62.77 -762.82,-183.47 -217.26,-120.7 -381.42,-294.5 -497.29,-521.42 -120.7,-222.09 -178.64,-487.63 -178.64,-791.8l0 -1936.03 511.77 0 0 1936.03c0,207.61 38.63,391.07 115.88,540.74 72.42,154.5 183.46,275.2 323.47,357.27 140.02,82.08 304.17,125.53 492.46,125.53 188.29,0 347.62,-43.45 487.63,-125.53 140.01,-82.07 246.23,-202.77 323.48,-357.27 77.24,-149.67 115.87,-333.13 115.87,-540.74l0 -1936.03 506.94 0 0 1936.03c0,304.17 -57.94,569.71 -173.81,791.8 -120.7,226.92 -284.85,400.72 -497.28,521.42 -217.26,120.7 -473.15,183.47 -767.66,183.47zm-337.96 -3886.55l444.18 -589.02 584.19 0 -622.82 589.02 -405.55 0zm3780.33 3886.55c-294.51,0 -545.56,-62.77 -762.82,-183.47 -217.26,-120.7 -381.42,-294.5 -497.29,-521.42 -120.7,-222.09 -178.64,-487.63 -178.64,-791.8l0 -1936.03 511.77 0 0 1936.03c0,207.61 38.63,391.07 115.88,540.74 72.42,154.5 183.46,275.2 323.47,357.27 140.02,82.08 304.17,125.53 492.46,125.53 188.29,0 347.62,-43.45 487.63,-125.53 140.01,-82.07 246.23,-202.77 323.48,-357.27 77.24,-149.67 115.87,-333.13 115.87,-540.74l0 -1936.03 506.94 0 0 1936.03c0,304.17 -57.94,569.71 -173.81,791.8 -120.7,226.92 -284.85,400.72 -497.28,521.42 -217.26,120.7 -473.15,183.47 -767.66,183.47zm2066.39 -53.11l0 -3379.61 511.77 0 0 1564.28 1631.87 -1564.28 642.12 0 -1752.57 1636.7 1805.68 1742.91 -695.23 0 -1631.87 -1598.07 0 1598.07 -511.77 0z"/>
  <path class="fil1" d="M3726.94 15310.97l0 -3006.36 2508.16 -1498.71 1010.5 603.78 121 -239.39 -1062.74 -635.04c-40.92,-24.38 -93.7,-26.11 -137.48,0l-2632.53 1572.9c-44.68,21.87 -75.53,67.83 -75.53,120.82l0.5 3157.64c0.5,230.75 206.51,-17.78 268.12,-75.64zm1298.73 1087.74l165.67 -212.8 1043.76 623.66 2508.07 -1498.6 0 -2949.39c47.14,-32.91 268.05,-166.19 268.15,-132.61l0.5 3157.64c0,53.08 -30.87,98.97 -75.53,120.81l-2632.43 1572.92c-43.78,26.09 -96.56,24.37 -137.48,0l-1140.71 -681.63z"/>
  <path class="fil1" d="M3722.13 15298.19l-268.11 -40.76c-38.85,110.6 -137.65,237.19 -341.81,372.06 -75.45,48.76 -111.76,75.37 -182.86,128.72 -608.81,447.56 -1681.46,1300.87 -1750.25,1355.58 -179.4,133.15 -234.39,333.59 -199.39,507.97 13.23,66.24 40.31,129.73 78.88,184.82 39.38,56.3 91.15,103.59 152.77,136.4 144.61,76.88 338.13,75.34 549.12,-75.6l2423.5 -1732.69c60.22,-43.09 74.17,-127.01 31.09,-187.23 -43.09,-60.22 -127.02,-74.17 -187.24,-31.09l-2423.5 1732.7c-114.42,81.84 -206.15,89.69 -267.1,57.33 -23.38,-12.44 -43.7,-31.31 -59.49,-53.84 -16.51,-23.62 -28.54,-52.41 -34.74,-83.5 -16.44,-81.73 10.15,-176.28 95.48,-239.8l3.53 -2.72c3.08,-2.46 1129.19,-899.5 1745.81,-1352.83 60.64,-45.49 108.34,-79.17 171.65,-120.43 285.26,-188.49 416.29,-380.93 462.66,-555.09z"/>
  <path class="fil1" d="M4062.33 16344.9c-146.12,0 -264.52,-121.75 -264.52,-271.92 0,-150.16 118.4,-271.91 264.52,-271.91 146.11,0 264.51,121.75 264.51,271.91 0,150.17 -118.4,271.92 -264.51,271.92z"/>
  <path class="fil2 str0" d="M4062.33 16344.9c-146.12,0 -264.52,-121.75 -264.52,-271.92 0,-150.16 118.4,-271.91 264.52,-271.91 146.11,0 264.51,121.75 264.51,271.91 0,150.17 -118.4,271.92 -264.51,271.92z"/>
  <path class="fil2 str1" d="M6235 15920.65c-1169.43,0 -2117.44,-945.92 -2117.44,-2112.89 0,-1166.99 948.01,-2112.89 2117.44,-2112.89 1169.42,0 2117.4,945.9 2117.4,2112.89 0,1166.97 -947.98,2112.89 -2117.4,2112.89z"/>
  <path class="fil1" d="M8750.3 12538.92l266.31 51.23c43.15,-109.01 146.83,-231.64 356.1,-358.39 77.33,-45.76 114.65,-70.95 187.78,-121.46 625.86,-423.37 1731.12,-1234.02 1801.99,-1286.02 184.47,-126.01 247.26,-324.13 219.11,-499.78 -10.62,-66.71 -35.17,-131.16 -71.58,-187.75 -37.15,-57.78 -87.03,-107.07 -147.32,-142.27 -141.46,-82.48 -334.89,-88.51 -551.64,54.01l-2489.48 1636.5c-61.88,40.67 -79.09,124 -38.42,185.84 40.71,61.88 124,79.09 185.88,38.42l2489.48 -1636.47c117.55,-77.33 209.52,-81.56 269.17,-46.81 22.86,13.33 42.44,32.98 57.33,56.13 15.56,24.23 26.46,53.48 31.43,84.77 13.23,82.3 -17.04,175.75 -104.77,235.87l-3.64 2.57c-3.21,2.37 -1163.56,854.61 -1797.43,1283.44 -62.41,43.08 -111.38,74.9 -176.25,113.63 -292.42,177.17 -430.92,364.35 -484.05,536.54z"/>
  <path class="fil1" d="M8289.11 11599.02c146.09,3.17 261.8,127.49 258.52,277.63 -3.32,150.11 -124.35,269.24 -270.44,266.03 -146.08,-3.21 -261.76,-127.53 -258.48,-277.63 3.28,-150.11 124.35,-269.24 270.4,-266.03z"/>
  <path class="fil2 str0" d="M8289.11 11599.02c146.09,3.17 261.8,127.49 258.52,277.63 -3.32,150.11 -124.35,269.24 -270.44,266.03 -146.08,-3.21 -261.76,-127.53 -258.48,-277.63 3.28,-150.11 124.35,-269.24 270.4,-266.03z"/>
 </g>
</svg>
