<?xml version="1.0" encoding="UTF-8"?>
<!DOCTYPE svg PUBLIC "-//W3C//DTD SVG 1.1//EN" "http://www.w3.org/Graphics/SVG/1.1/DTD/svg11.dtd">
<!-- Creator: CorelDRAW -->
<svg xmlns="http://www.w3.org/2000/svg" xml:space="preserve" width="215.9mm" height="279.4mm" version="1.1" style="shape-rendering:geometricPrecision; text-rendering:geometricPrecision; image-rendering:optimizeQuality; fill-rule:evenodd; clip-rule:evenodd"
viewBox="0 0 21590 27940"
 xmlns:xlink="http://www.w3.org/1999/xlink"
 xmlns:xodm="http://www.corel.com/coreldraw/odm/2003">
 <defs>
  <style type="text/css">
   <![CDATA[
    .str1 {stroke:#23242B;stroke-width:400;stroke-miterlimit:22.9256}
    .str0 {stroke:#23242B;stroke-width:250;stroke-linecap:round;stroke-linejoin:round;stroke-miterlimit:22.9256}
    .fil2 {fill:none}
    .fil1 {fill:#23242B}
    .fil0 {fill:#23242B;fill-rule:nonzero}
   ]]>
  </style>
 </defs>
 <g id="Capa_x0020_1">
  <metadata id="CorelCorpID_0Corel-Layer"/>
  <path class="fil0" d="M4862.3 22247.31c-0.49,3.36 -1.77,6.24 -4,8.48 -2.24,2.24 -4.79,3.36 -7.84,3.36 -3.68,0 -6.73,-1.12 -8.8,-3.36 -2.08,-2.24 -3.04,-5.12 -3.04,-8.48l0 -371.35c0,-3.37 1.12,-6.24 3.36,-8.49 2.24,-2.23 5.12,-3.36 8.48,-3.36 3.36,0 6.24,1.13 8.48,3.36 2.24,2.25 3.36,5.12 3.36,8.49l0 371.35zm231.52 -278.87c23.68,0 42.89,4.79 57.76,14.23 14.88,9.44 25.92,22.24 32.81,38.41 6.87,16.15 10.39,34.08 10.39,54.07l0 172.64c0,3.04 -1.12,5.76 -3.37,8 -2.23,2.24 -4.79,3.36 -7.84,3.36 -3.35,0 -6.22,-1.12 -8.31,-3.36 -2.08,-2.24 -3.04,-4.96 -3.04,-8l0 -170.4c0,-16.16 -2.72,-30.87 -8.16,-43.99 -5.44,-13.29 -14.08,-23.84 -26.08,-31.68 -11.84,-7.84 -27.36,-11.85 -46.4,-11.85 -16.64,0 -32.8,4.01 -48.64,11.85 -15.84,7.84 -28.8,18.39 -39.2,31.68 -10.4,13.12 -15.52,27.83 -15.52,43.99l0 170.4c0,3.04 -1.11,5.76 -3.36,8 -2.24,2.24 -4.96,3.36 -8,3.36 -3.35,0 -6.08,-1.12 -8.16,-3.36 -2.09,-2.24 -3.03,-4.96 -3.03,-8l0 -259.04c0,-3.03 1.11,-5.6 3.36,-7.84 2.23,-2.23 4.79,-3.36 7.83,-3.36 3.36,0 6.08,1.13 8.17,3.36 2.08,2.24 3.19,4.81 3.19,7.84l0 55.36 -14.08 27.05c0,-13.6 3.51,-26.57 10.72,-38.89 7.19,-12.47 16.48,-23.53 28.16,-33.12 11.68,-9.6 24.65,-17.12 38.72,-22.55 14.08,-5.45 28.17,-8.16 42.08,-8.16zm181.12 -1.13c1.93,0 3.84,0.65 5.93,2.08 2.07,1.28 3.51,3.04 4.31,5.28l104.31 250.08 -5.59 3.85 106.08 -253.93c1.92,-4.96 5.93,-7.36 11.84,-7.36 1.93,0 4.16,0.8 6.72,2.24 2.72,1.44 4,3.85 4,6.88 0,1.76 -0.16,3.2 -0.63,4.16 -0.34,0.97 -0.65,1.77 -0.97,2.56l-112.32 268.64c-1.92,4.96 -5.45,7.36 -10.73,7.36 -2.23,0 -4.47,-0.63 -6.55,-1.92 -2.09,-1.44 -3.37,-3.19 -4.17,-5.44l-112.95 -268.15c-0.32,-0.8 -0.64,-1.61 -0.8,-2.42 -0.15,-0.94 -0.32,-1.75 -0.32,-2.54 0,-3.05 0.97,-5.76 2.72,-8.01 1.93,-2.23 4.96,-3.36 9.12,-3.36zm432.96 297.45c-28.31,0 -53.28,-6.09 -74.88,-18.08 -21.61,-12.01 -38.72,-29.13 -51.19,-51.04 -12.34,-21.93 -18.57,-47.85 -18.57,-77.6 0,-31.53 6.08,-58.4 18.4,-80.65 12.32,-22.24 28,-39.35 47.37,-51.2 19.36,-11.84 39.99,-17.75 61.91,-17.75 15.85,0 31.2,2.55 46.25,7.67 15.03,4.96 28.47,12.96 40.31,23.68 11.84,10.72 21.44,24.16 28.8,40.17 7.35,15.83 11.37,35.03 12.16,57.27 0,3.04 -1.13,5.76 -3.36,8.16 -2.25,2.4 -4.96,3.68 -8.01,3.68l-230.22 0 -3.37 -21.43 227.52 0 -5.76 4.95 0 -10.08c-1.77,-19.99 -8.16,-36.64 -18.88,-50.24 -10.72,-13.6 -23.53,-23.84 -38.72,-30.72 -15.04,-7.04 -30.55,-10.55 -46.72,-10.55 -11.35,0 -23.2,2.55 -35.68,7.67 -12.32,5.13 -23.84,12.81 -34.39,23.21 -10.41,10.39 -19.05,23.36 -25.61,39.19 -6.56,15.85 -9.92,34.24 -9.92,55.2 0,23.04 4.65,44.16 13.76,63.37 9.28,19.03 23.04,34.56 41.28,46.23 18.25,11.69 40.8,17.45 67.52,17.45 12.8,0 24.8,-2.09 36,-6.41 11.35,-4.32 21.44,-10.08 30.56,-17.28 9.12,-7.2 16.32,-14.87 21.91,-23.2 3.05,-3.36 6.25,-4.96 9.61,-4.96 2.73,0 4.96,0.97 6.72,3.05 1.92,2.07 2.88,4.31 2.88,7.03 0,2.73 -0.8,4.96 -2.24,6.72 -11.68,15.2 -26.56,28.32 -44.8,39.68 -18.23,11.2 -38.39,16.81 -60.64,16.81zm170.9 -50.73c-2.72,-4.64 -3.85,-8.32 -3.71,-11.04 0.18,-2.72 1.62,-5.12 4.34,-7.04 1.76,-1.91 4.3,-2.71 7.51,-2.56 3.18,0.16 5.93,1.6 8.15,4.16 9.78,13.92 22.41,25.29 37.61,33.93 15.2,8.64 33.27,12.95 53.94,12.95 12.31,0 24.31,-2.08 35.67,-6.08 11.53,-4.16 20.95,-10.4 28.32,-18.72 7.34,-8.31 11.05,-18.4 11.05,-30.4 0,-12.8 -3.53,-23.04 -10.73,-30.72 -7.2,-7.84 -16.33,-13.92 -27.69,-18.4 -11.36,-4.64 -23.21,-8.32 -35.53,-11.35 -13.26,-3.36 -25.75,-7.21 -37.6,-11.52 -11.82,-4.33 -22.23,-9.77 -31.33,-16.33 -9,-6.56 -16.19,-14.4 -21.45,-23.52 -5.29,-9.11 -7.87,-19.83 -7.87,-32.15 0,-14.72 4.03,-27.86 11.86,-39.53 7.83,-11.68 19.05,-20.81 33.26,-27.36 14.26,-6.56 30.91,-9.91 49.78,-9.91 8.96,0 18.56,1.11 28.65,3.51 10.23,2.25 20.49,6.08 30.55,11.52 10.09,5.45 19.54,13.12 28.33,22.88 3.03,2.24 4.3,4.96 4.16,8.16 -0.18,3.21 -1.62,6.09 -4.16,8.64 -2.4,1.44 -4.8,2.24 -7.52,2.24 -2.57,0 -4.8,-1.11 -6.74,-3.36 -9.73,-10.87 -21.13,-18.88 -34.07,-24.16 -12.95,-5.28 -26.89,-8 -41.42,-8 -12.49,0 -24.17,2.08 -34.89,6.24 -10.72,4.16 -19.37,10.24 -26.25,18.4 -6.7,8.17 -10.09,18.41 -10.09,30.73 0.81,11.67 4.8,21.27 12.17,28.8 7.34,7.51 17.11,13.6 29.28,18.55 12.32,4.96 26.08,9.45 41.6,13.6 12.31,3.04 23.84,6.4 34.57,10.4 10.72,4 20.14,8.96 28.33,15.04 8.15,5.92 14.53,13.44 19.19,22.57 4.62,8.95 7.02,20.16 7.02,33.75 0,15.84 -4.31,29.6 -12.81,41.12 -8.46,11.37 -19.96,20.16 -34.85,26.4 -14.89,6.24 -31.86,9.29 -51.05,9.29 -19.68,0 -38.42,-4.01 -56.48,-11.85 -18.1,-7.84 -34.39,-20.8 -49.1,-38.88zm252.3 -238.71l130.88 0c3.04,0 5.44,1.11 7.52,3.36 2.08,2.23 3.21,4.63 3.21,7.36 0,3.03 -1.13,5.59 -3.21,7.67 -2.08,2.08 -4.48,3.05 -7.52,3.05l-130.88 0c-2.71,0 -5.11,-1.13 -7.37,-3.36 -2.22,-2.4 -3.35,-4.8 -3.35,-7.36 0,-3.05 1.13,-5.61 3.35,-7.69 2.26,-2.09 4.66,-3.03 7.37,-3.03zm57.43 -83.04c3.36,0 6.11,1.11 8.15,3.36 2.08,2.23 3.21,4.79 3.21,7.84l0 294.07c0,12.49 1.63,21.61 4.8,27.52 3.21,5.76 7.23,9.44 12.17,11.2 4.94,1.77 9.6,2.57 14.08,2.57 2.71,0 4.97,-0.33 6.74,-1.13 1.9,-0.8 4.16,-1.12 6.88,-1.12 2.54,0 4.76,1.12 6.7,3.2 1.9,2.08 2.89,4.32 2.89,6.89 0,3.35 -2.26,6.39 -6.56,8.79 -4.34,2.4 -9.77,3.68 -16.16,3.68 -2.26,0 -6.24,-0.15 -12.17,-0.32 -5.75,-0.16 -11.99,-1.91 -18.55,-5.12 -6.57,-3.2 -12.18,-8.96 -16.66,-17.44 -4.48,-8.47 -6.7,-20.96 -6.7,-37.44l0 -295.35c0,-3.05 1.13,-5.61 3.35,-7.84 2.23,-2.25 4.8,-3.36 7.83,-3.36zm169.44 355.51c0,3.04 -1.09,5.76 -3.35,8 -2.22,2.24 -4.97,3.36 -8.01,3.36 -3.35,0 -6.06,-1.12 -8.15,-3.36 -2.08,-2.24 -3.03,-4.96 -3.03,-8l0 -268c0,-3.04 1.09,-5.59 3.35,-7.84 2.22,-2.4 4.8,-3.51 7.83,-3.51 3.39,0 6.11,1.11 8.19,3.51 2.08,2.25 3.17,4.8 3.17,7.84l0 268zm-11.36 -317.76c-5.92,0 -10.72,-1.6 -14.39,-4.96 -3.53,-3.36 -5.29,-7.84 -5.29,-13.12l0 -4.48c0,-5.27 1.94,-9.6 5.61,-12.97 3.67,-3.34 8.64,-5.11 14.71,-5.11 5.29,0 9.63,1.77 13.12,5.11 3.67,3.37 5.44,7.7 5.44,12.97l0 4.48c0,5.28 -1.77,9.76 -5.44,13.12 -3.49,3.36 -8.15,4.96 -13.76,4.96zm224.16 38.41c16.97,0 32.81,3.03 47.38,9.11 14.71,5.92 27.69,13.93 38.7,23.68 11.04,9.76 19.68,20.32 25.93,31.69 6.24,11.19 9.45,22.24 9.45,33.11l-7.37 -20.79 0 -56.49c0,-3.03 0.95,-5.6 3.03,-7.84 2.08,-2.23 4.8,-3.36 8.19,-3.36 3.35,0 6.06,1.13 8.14,3.36 2.09,2.24 3.22,4.81 3.22,7.84l0 242.73c0,28.95 -5.93,54.07 -17.78,75.03 -11.82,21.13 -28.16,37.28 -48.79,48.65 -20.64,11.35 -44.81,16.95 -72.32,16.95 -15.07,0 -30.24,-2.08 -45.44,-6.08 -15.21,-4 -28.01,-8.96 -38.1,-14.88 -10.09,-5.92 -15.21,-12.32 -15.21,-19.2 0,-3.04 0.82,-5.44 2.4,-7.36 1.77,-1.76 4.17,-2.71 7.23,-2.71 3.67,0 7.2,2.08 10.38,6.07 3.21,4.17 8.96,8 17.28,11.36 3.35,1.12 7.83,2.73 13.76,4.48 5.93,1.93 12.98,3.53 21.13,4.81 8.33,1.43 17.61,2.08 27.7,2.08 35.66,0 63.81,-11.05 84.31,-33.13 20.64,-21.92 30.87,-50.71 30.87,-86.07l0 -55.85 5.61 0.48c-4.48,16.16 -11.05,29.92 -19.86,41.28 -8.65,11.36 -18.53,20.48 -29.6,27.36 -11.05,6.89 -22.72,12 -35.03,15.2 -12.17,3.21 -23.85,4.81 -35.21,4.81 -25.93,0 -49.11,-6.41 -69.75,-19.36 -20.49,-12.97 -36.79,-30.73 -48.78,-53.13 -12.03,-22.4 -18.1,-47.68 -18.1,-76 0,-28.16 6.07,-53.44 18.1,-75.84 11.99,-22.4 28.29,-39.99 48.78,-52.8 20.64,-12.8 43.82,-19.19 69.75,-19.19zm1.13 21.43c-21.77,0 -41.45,5.44 -58.88,16.48 -17.43,10.88 -31.19,25.77 -41.28,44.8 -9.91,19.04 -14.88,40.64 -14.88,65.12 0,24.16 4.97,45.77 14.88,64.96 10.09,19.2 23.85,34.4 41.28,45.44 17.43,11.04 37.11,16.65 58.88,16.65 21.91,0 41.45,-5.28 58.74,-16 17.28,-10.72 31,-25.61 41.09,-44.65 10.27,-19.03 15.35,-41.12 15.35,-66.4 0,-25.12 -5.08,-47.19 -15.35,-66.24 -10.09,-19.04 -23.81,-33.76 -41.09,-44.32 -17.29,-10.55 -36.83,-15.84 -58.74,-15.84zm462.42 -12.32c3.35,0 6.07,1.13 8.15,3.36 2.08,2.24 3.03,4.81 3.03,7.84l0 259.04c0,3.04 -1.13,5.76 -3.35,8 -2.26,2.24 -4.8,3.36 -7.83,3.36 -3.39,0 -6.25,-1.12 -8.33,-3.36 -2.08,-2.24 -3.07,-4.96 -3.07,-8l0 -80.16 9.14 -7.2c0,12 -3.03,24.32 -9.14,36.64 -5.89,12.32 -14.21,23.69 -24.76,33.93 -10.58,10.07 -23.04,18.23 -37.29,24.47 -14.25,6.24 -29.77,9.29 -46.25,9.29 -25.12,0 -47.66,-6.56 -67.52,-19.69 -19.69,-13.28 -35.21,-31.04 -46.57,-53.6 -11.36,-22.55 -16.93,-47.99 -16.93,-76.31 0,-28.65 5.75,-53.93 17.25,-75.85 11.54,-21.93 27.2,-39.2 46.88,-51.84 19.69,-12.64 42.09,-19.03 66.89,-19.03 16.16,0 31.5,2.88 45.76,8.79 14.25,5.92 26.7,14.08 37.43,24.64 10.72,10.4 19.22,22.72 25.11,36.96 6.11,14.08 9.14,29.45 9.14,45.93l-9.14 -14.09 0 -81.92c0,-3.03 0.99,-5.6 3.07,-7.84 2.08,-2.23 4.94,-3.36 8.33,-3.36zm-118.57 265.77c21.13,0 40.01,-5.61 56.48,-16.65 16.47,-11.04 29.42,-26.24 38.88,-45.6 9.42,-19.36 14.07,-41.44 14.07,-65.91 0,-23.21 -4.65,-44.33 -14.07,-63.36 -9.46,-19.05 -22.41,-34.25 -38.88,-45.29 -16.47,-11.04 -35.35,-16.64 -56.48,-16.64 -20.64,0 -39.37,5.44 -56.02,16.16 -16.48,10.72 -29.6,25.44 -39.19,44.32 -9.42,18.73 -14.26,40.32 -14.26,64.81 0,24.47 4.66,46.55 14.11,65.91 9.42,19.36 22.41,34.56 38.88,45.6 16.48,11.04 35.35,16.65 56.48,16.65zm348.16 -274.88c16.97,0 32.81,1.91 47.66,5.76 14.88,3.68 27.06,8.64 36.16,14.87 9.27,6.24 13.93,12.65 13.93,19.52 0,2.57 -1.13,5.11 -3.21,7.53 -2.08,2.4 -4.48,3.68 -7.51,3.68 -4.17,0 -7.52,-1.13 -9.92,-3.36 -2.39,-2.25 -4.97,-4.96 -7.69,-8.16 -2.54,-3.21 -6.7,-6.09 -12.31,-8.81 -5.29,-2.56 -12.8,-4.79 -22.4,-6.72 -9.6,-1.92 -21.27,-2.88 -35.21,-2.88 -21.9,0 -41.73,5.6 -59.83,16.96 -18.06,11.37 -32.49,26.4 -43.21,45.45 -10.69,19.03 -15.98,40.31 -15.98,63.99 0,24.16 4.97,45.77 14.85,64.96 10.09,19.2 24.02,34.4 41.77,45.44 17.92,11.04 38.73,16.65 62.4,16.65 16.97,0 29.78,-1.6 38.56,-4.81 8.82,-3.2 16.48,-6.72 22.9,-10.39 8,-4.48 13.44,-8.81 16.47,-12.97 3.04,-4.16 6.56,-6.24 10.73,-6.24 3.03,0 5.29,0.96 7.02,2.88 1.76,1.76 2.57,4.32 2.57,7.37 0,4.48 -4.16,10.39 -12.49,17.75 -8.15,7.2 -19.82,13.76 -34.71,19.36 -14.89,5.61 -32.49,8.49 -52.81,8.49 -27.34,0 -51.68,-6.41 -72.78,-19.36 -20.99,-12.97 -37.43,-30.73 -49.46,-53.13 -11.82,-22.4 -17.74,-47.68 -17.74,-76 0,-26.23 5.92,-50.56 17.74,-72.96 12.03,-22.4 28.47,-40.48 49.78,-54.24 21.27,-13.75 46.07,-20.63 74.72,-20.63zm189.76 279.35c0,3.04 -1.13,5.76 -3.39,8 -2.22,2.24 -4.94,3.36 -7.97,3.36 -3.35,0 -6.07,-1.12 -8.15,-3.36 -2.08,-2.24 -3.07,-4.96 -3.07,-8l0 -268c0,-3.04 1.13,-5.59 3.38,-7.84 2.23,-2.4 4.8,-3.51 7.84,-3.51 3.35,0 6.06,1.11 8.15,3.51 2.08,2.25 3.21,4.8 3.21,7.84l0 268zm-11.36 -317.76c-5.93,0 -10.73,-1.6 -14.4,-4.96 -3.52,-3.36 -5.29,-7.84 -5.29,-13.12l0 -4.48c0,-5.27 1.91,-9.6 5.61,-12.97 3.67,-3.34 8.64,-5.11 14.71,-5.11 5.26,0 9.6,1.77 13.12,5.11 3.67,3.37 5.44,7.7 5.44,12.97l0 4.48c0,5.28 -1.77,9.76 -5.44,13.12 -3.52,3.36 -8.18,4.96 -13.75,4.96zm365.93 186.88c0,27.85 -6.1,52.96 -18.09,75.36 -12,22.4 -28.47,40.16 -49.46,53.13 -20.96,12.95 -44.63,19.36 -71.37,19.36 -26.39,0 -50.06,-6.41 -71.19,-19.36 -20.96,-12.97 -37.61,-30.73 -49.92,-53.13 -12.31,-22.4 -18.38,-47.51 -18.38,-75.36 0,-28.32 6.07,-53.59 18.38,-75.84 12.31,-22.4 28.96,-40.15 49.92,-53.12 21.13,-12.95 44.8,-19.51 71.19,-19.51 26.74,0 50.41,6.56 71.37,19.51 20.99,12.97 37.46,30.72 49.46,53.12 11.99,22.25 18.09,47.52 18.09,75.84zm-22.57 0c0,-24.48 -4.98,-46.08 -15.03,-65.11 -9.95,-19.05 -23.71,-34.25 -41.31,-45.29 -17.43,-11.04 -37.43,-16.64 -60.01,-16.64 -22.23,0 -42.05,5.6 -59.83,16.64 -17.75,11.04 -31.68,26.24 -41.74,45.29 -10.09,19.03 -15.2,40.63 -15.2,65.11 0,24.17 5.11,45.6 15.2,64.64 10.06,19.05 23.99,34.08 41.74,45.12 17.78,11.04 37.6,16.65 59.83,16.65 22.58,0 42.58,-5.61 60.01,-16.65 17.6,-11.04 31.36,-26.07 41.31,-45.12 10.05,-19.04 15.03,-40.47 15.03,-64.64zm-126.58 -171.51c-1.73,0 -3.35,-0.8 -4.48,-2.25 -1.1,-1.6 -1.59,-3.2 -1.59,-4.64 0,-1.75 0.95,-4.32 2.72,-7.36l35.03 -52.48c1.13,-1.76 2.89,-3.68 5.29,-5.76 2.4,-2.08 5.61,-3.19 9.42,-3.19 4.02,0 7.55,1.11 10.26,3.36 2.86,2.23 4.31,5.76 4.31,10.72 0,2.23 -0.32,3.99 -1.1,5.43 -0.81,1.28 -1.62,2.73 -2.75,4.16l-42.37 43.52c-1.94,1.76 -4.16,3.68 -6.59,5.61 -2.4,1.91 -5.08,2.88 -8.15,2.88zm353.45 23.04c23.67,0 42.89,4.79 57.75,14.23 14.88,9.44 25.93,22.24 32.8,38.41 6.88,16.15 10.41,34.08 10.41,54.07l0 172.64c0,3.04 -1.13,5.76 -3.35,8 -2.26,2.24 -4.8,3.36 -7.87,3.36 -3.35,0 -6.21,-1.12 -8.29,-3.36 -2.08,-2.24 -3.03,-4.96 -3.03,-8l0 -170.4c0,-16.16 -2.75,-30.87 -8.19,-43.99 -5.43,-13.29 -14.07,-23.84 -26.07,-31.68 -11.85,-7.84 -27.34,-11.85 -46.39,-11.85 -16.65,0 -32.8,4.01 -48.64,11.85 -15.84,7.84 -28.83,18.39 -39.2,31.68 -10.4,13.12 -15.52,27.83 -15.52,43.99l0 170.4c0,3.04 -1.13,5.76 -3.35,8 -2.26,2.24 -4.98,3.36 -8.01,3.36 -3.39,0 -6.1,-1.12 -8.18,-3.36 -2.09,-2.24 -3.04,-4.96 -3.04,-8l0 -259.04c0,-3.03 1.13,-5.6 3.35,-7.84 2.26,-2.23 4.8,-3.36 7.87,-3.36 3.35,0 6.07,1.13 8.15,3.36 2.08,2.24 3.21,4.81 3.21,7.84l0 55.36 -14.08 27.05c0,-13.6 3.5,-26.57 10.73,-38.89 7.2,-12.47 16.44,-23.53 28.15,-33.12 11.68,-9.6 24.62,-17.12 38.7,-22.55 14.11,-5.45 28.15,-8.16 42.09,-8.16zm226.23 298.07c0,9.44 -2.85,18.41 -8.46,27.05 -5.61,8.64 -12.17,15.67 -20.01,21.11 -7.69,5.61 -15.02,8.32 -22.26,8.32 -2.71,0 -5.11,-0.64 -7.19,-2.08 -2.08,-1.28 -3.04,-3.99 -3.04,-8.16 0,-4.16 1.45,-6.4 4.17,-6.87 2.89,-0.33 7.37,-1.93 13.44,-4.96 6.73,-3.37 11.85,-7.53 15.34,-12.49 3.71,-4.79 5.47,-10.24 5.47,-16.31 0,-5.28 -1.3,-9.13 -3.7,-11.52 -2.37,-2.4 -5.12,-3.68 -8.15,-3.68 -2.72,0 -5.26,0.48 -8.01,1.43 -2.54,0.96 -4.8,2.25 -6.7,3.68 -1.45,-1.92 -2.72,-4 -3.71,-6.24 -0.77,-2.24 -1.09,-4.48 -0.77,-6.88 0.77,-4.48 3.52,-8.32 8.46,-11.67 4.98,-3.36 10.41,-5.13 16.34,-5.13 8.32,0 15.2,3.68 20.63,11.04 5.44,7.21 8.15,15.05 8.15,23.36zm448.31 -425.11c3.39,0 6.11,1.11 8.19,3.51 2.08,2.25 3.03,4.8 3.03,7.84l0 395.04c0,3.04 -1.13,5.76 -3.35,8 -2.26,2.24 -4.8,3.36 -7.87,3.36 -3.35,0 -6.24,-1.12 -8.29,-3.36 -2.08,-2.24 -3.03,-4.96 -3.03,-8l0 -80.16 9.1 -12.32c0,12.81 -2.86,25.76 -8.78,38.73 -5.93,12.95 -14.26,24.79 -24.98,35.51 -10.72,10.72 -23.21,19.21 -37.43,25.6 -14.25,6.4 -29.77,9.61 -46.25,9.61 -24.8,0 -47.2,-6.41 -66.89,-19.36 -19.68,-12.97 -35.34,-30.73 -46.88,-53.13 -11.5,-22.4 -17.29,-47.68 -17.29,-76 0,-28.16 5.79,-53.44 17.29,-75.84 11.54,-22.4 27.2,-39.99 46.88,-52.8 19.69,-12.8 42.09,-19.19 66.89,-19.19 15.52,0 30.23,2.88 44.34,8.79 14.05,5.92 26.53,14.08 37.4,24.64 11.08,10.4 19.72,22.72 26.1,36.96 6.39,14.08 9.6,29.45 9.6,45.93l-9.1 -14.09 0 -217.92c0,-3.04 0.95,-5.59 3.03,-7.84 2.05,-2.4 4.94,-3.51 8.29,-3.51zm-118.53 401.92c21.41,0 40.32,-5.45 56.62,-16.33 16.51,-10.88 29.28,-25.91 38.74,-45.12 9.45,-19.2 14.07,-41.12 14.07,-65.6 0,-24.48 -4.62,-46.08 -14.07,-65.12 -9.46,-19.03 -22.41,-33.92 -38.88,-44.8 -16.51,-11.04 -35.38,-16.48 -56.48,-16.48 -20.64,0 -39.37,5.44 -56.02,16.48 -16.48,10.88 -29.6,25.77 -39.2,44.8 -9.45,19.04 -14.21,40.64 -14.21,65.12 0,24.16 4.76,45.77 14.21,64.96 9.6,19.2 22.72,34.4 39.2,45.44 16.65,11.04 35.38,16.65 56.02,16.65zm246.06 4.47c0,3.04 -1.09,5.76 -3.35,8 -2.22,2.24 -4.97,3.36 -8.01,3.36 -3.35,0 -6.07,-1.12 -8.15,-3.36 -2.08,-2.24 -3.03,-4.96 -3.03,-8l0 -268c0,-3.04 1.09,-5.59 3.35,-7.84 2.22,-2.4 4.8,-3.51 7.83,-3.51 3.35,0 6.11,1.11 8.19,3.51 2.08,2.25 3.17,4.8 3.17,7.84l0 268zm-11.36 -317.76c-5.92,0 -10.69,-1.6 -14.39,-4.96 -3.53,-3.36 -5.29,-7.84 -5.29,-13.12l0 -4.48c0,-5.27 1.94,-9.6 5.61,-12.97 3.67,-3.34 8.64,-5.11 14.71,-5.11 5.29,0 9.63,1.77 13.12,5.11 3.7,3.37 5.47,7.7 5.47,12.97l0 4.48c0,5.28 -1.77,9.76 -5.47,13.12 -3.49,3.36 -8.15,4.96 -13.76,4.96zm89.29 284c-2.72,-4.64 -3.84,-8.32 -3.67,-11.04 0.14,-2.72 1.59,-5.12 4.31,-7.04 1.76,-1.91 4.33,-2.71 7.51,-2.56 3.21,0.16 5.93,1.6 8.18,4.16 9.74,13.92 22.41,25.29 37.58,33.93 15.2,8.64 33.3,12.95 53.93,12.95 12.32,0 24.31,-2.08 35.67,-6.08 11.54,-4.16 20.96,-10.4 28.33,-18.72 7.37,-8.31 11.04,-18.4 11.04,-30.4 0,-12.8 -3.53,-23.04 -10.72,-30.72 -7.2,-7.84 -16.34,-13.92 -27.66,-18.4 -11.4,-4.64 -23.21,-8.32 -35.53,-11.35 -13.3,-3.36 -25.78,-7.21 -37.6,-11.52 -11.86,-4.33 -22.26,-9.77 -31.36,-16.33 -8.96,-6.56 -16.16,-14.4 -21.45,-23.52 -5.29,-9.11 -7.83,-19.83 -7.83,-32.15 0,-14.72 3.98,-27.86 11.81,-39.53 7.87,-11.68 19.05,-20.81 33.31,-27.36 14.25,-6.56 30.86,-9.91 49.74,-9.91 8.99,0 18.55,1.11 28.64,3.51 10.27,2.25 20.5,6.08 30.55,11.52 10.09,5.45 19.55,13.12 28.33,22.88 3.04,2.24 4.34,4.96 4.16,8.16 -0.14,3.21 -1.58,6.09 -4.16,8.64 -2.4,1.44 -4.8,2.24 -7.51,2.24 -2.54,0 -4.8,-1.11 -6.71,-3.36 -9.77,-10.87 -21.13,-18.88 -34.07,-24.16 -12.99,-5.28 -26.92,-8 -41.46,-8 -12.48,0 -24.16,2.08 -34.89,6.24 -10.72,4.16 -19.36,10.24 -26.21,18.4 -6.73,8.17 -10.09,18.41 -10.09,30.73 0.78,11.67 4.8,21.27 12.14,28.8 7.37,7.51 17.14,13.6 29.28,18.55 12.31,4.96 26.11,9.45 41.63,13.6 12.31,3.04 23.81,6.4 34.53,10.4 10.73,4 20.18,8.96 28.33,15.04 8.15,5.92 14.57,13.44 19.19,22.57 4.66,8.95 7.06,20.16 7.06,33.75 0,15.84 -4.34,29.6 -12.81,41.12 -8.46,11.37 -20,20.16 -34.89,26.4 -14.88,6.24 -31.82,9.29 -51.04,9.29 -19.69,0 -38.39,-4.01 -56.48,-11.85 -18.06,-7.84 -34.4,-20.8 -49.11,-38.88zm405.27 50.73c-28.33,0 -53.27,-6.09 -74.86,-18.08 -21.62,-12.01 -38.73,-29.13 -51.22,-51.04 -12.31,-21.93 -18.56,-47.85 -18.56,-77.6 0,-31.53 6.07,-58.4 18.42,-80.65 12.31,-22.24 27.97,-39.35 47.34,-51.2 19.37,-11.84 40.01,-17.75 61.95,-17.75 15.84,0 31.18,2.55 46.21,7.67 15.03,4.96 28.51,12.96 40.32,23.68 11.86,10.72 21.45,24.16 28.83,40.17 7.33,15.83 11.32,35.03 12.13,57.27 0,3.04 -1.09,5.76 -3.35,8.16 -2.22,2.4 -4.97,3.68 -8.01,3.68l-230.22 0 -3.39 -21.43 227.55 0 -5.76 4.95 0 -10.08c-1.76,-19.99 -8.18,-36.64 -18.87,-50.24 -10.72,-13.6 -23.53,-23.84 -38.73,-30.72 -15.07,-7.04 -30.55,-10.55 -46.71,-10.55 -11.4,0 -23.21,2.55 -35.7,7.67 -12.31,5.13 -23.85,12.81 -34.4,23.21 -10.41,10.39 -19.05,23.36 -25.61,39.19 -6.56,15.85 -9.91,34.24 -9.91,55.2 0,23.04 4.65,44.16 13.76,63.37 9.27,19.03 23.03,34.56 41.27,46.23 18.24,11.69 40.82,17.45 67.52,17.45 12.81,0 24.8,-2.09 36.02,-6.41 11.36,-4.32 21.45,-10.08 30.55,-17.28 9.1,-7.2 16.33,-14.87 21.91,-23.2 3.07,-3.36 6.24,-4.96 9.63,-4.96 2.72,0 4.94,0.97 6.7,3.05 1.94,2.07 2.89,4.31 2.89,7.03 0,2.73 -0.81,4.96 -2.25,6.72 -11.68,15.2 -26.57,28.32 -44.81,39.68 -18.23,11.2 -38.38,16.81 -60.64,16.81zm314.89 -296.32c23.67,0 42.9,4.79 57.75,14.23 14.89,9.44 25.93,22.24 32.81,38.41 6.88,16.15 10.41,34.08 10.41,54.07l0 172.64c0,3.04 -1.13,5.76 -3.36,8 -2.25,2.24 -4.83,3.36 -7.86,3.36 -3.35,0 -6.21,-1.12 -8.29,-3.36 -2.08,-2.24 -3.07,-4.96 -3.07,-8l0 -170.4c0,-16.16 -2.72,-30.87 -8.15,-43.99 -5.43,-13.29 -14.08,-23.84 -26.07,-31.68 -11.85,-7.84 -27.38,-11.85 -46.39,-11.85 -16.65,0 -32.81,4.01 -48.65,11.85 -15.84,7.84 -28.82,18.39 -39.23,31.68 -10.37,13.12 -15.49,27.83 -15.49,43.99l0 170.4c0,3.04 -1.12,5.76 -3.38,8 -2.22,2.24 -4.94,3.36 -7.97,3.36 -3.39,0 -6.11,-1.12 -8.19,-3.36 -2.08,-2.24 -3.03,-4.96 -3.03,-8l0 -259.04c0,-3.03 1.13,-5.6 3.35,-7.84 2.26,-2.23 4.8,-3.36 7.87,-3.36 3.35,0 6.06,1.13 8.14,3.36 2.09,2.24 3.21,4.81 3.21,7.84l0 55.36 -14.11 27.05c0,-13.6 3.53,-26.57 10.73,-38.89 7.23,-12.47 16.47,-23.53 28.19,-33.12 11.67,-9.6 24.62,-17.12 38.69,-22.55 14.08,-5.45 28.16,-8.16 42.09,-8.16zm-79.06 -35.53c-5.25,0 -8.15,-1.76 -8.64,-5.12 -0.32,-3.35 0.35,-8.31 1.76,-14.72 3.39,-12.32 9.46,-21.11 18.1,-26.4 8.65,-5.28 17.43,-8 26.57,-8 6.06,0 12.31,1.6 18.87,4.8 6.56,3.2 13.26,6.72 20,10.72 6.88,3.99 13.3,7.52 19.19,10.72 6.11,3.2 11.54,4.8 16.48,4.8 5.61,0 10.09,-2.07 13.47,-6.4 3.32,-4.31 5.75,-10.24 6.85,-17.76 0.32,-3.03 1.44,-5.6 3.38,-7.36 1.91,-1.92 4.31,-2.88 7.34,-2.88 5.61,0 8.65,1.76 8.96,5.44 0.5,3.52 0,8.16 -1.09,13.75 -1.76,9.13 -4.97,16.33 -9.31,21.76 -4.31,5.45 -9.42,9.29 -15.35,11.53 -5.75,2.24 -11.99,3.36 -18.73,3.36 -5.26,0 -11.19,-1.43 -17.57,-4.48 -6.42,-3.03 -12.98,-6.39 -19.54,-10.41 -6.57,-3.99 -12.77,-7.35 -18.88,-10.39 -5.92,-3.04 -11.36,-4.64 -16.33,-4.64 -5.58,0 -10.55,1.77 -14.71,5.45 -4.17,3.51 -7.52,9.58 -10.09,18.39 -0.78,2.56 -2.22,4.48 -4.31,5.93 -2.08,1.28 -4.16,1.91 -6.42,1.91zm534.57 184c0,27.85 -6.07,52.96 -18.06,75.36 -12,22.4 -28.47,40.16 -49.46,53.13 -20.96,12.95 -44.63,19.36 -71.34,19.36 -26.42,0 -50.09,-6.41 -71.22,-19.36 -20.96,-12.97 -37.61,-30.73 -49.88,-53.13 -12.35,-22.4 -18.42,-47.51 -18.42,-75.36 0,-28.32 6.07,-53.59 18.42,-75.84 12.27,-22.4 28.92,-40.15 49.88,-53.12 21.13,-12.95 44.8,-19.51 71.22,-19.51 26.71,0 50.38,6.56 71.34,19.51 20.99,12.97 37.46,30.72 49.46,53.12 11.99,22.25 18.06,47.52 18.06,75.84zm-22.54 0c0,-24.48 -4.98,-46.08 -15.07,-65.11 -9.91,-19.05 -23.67,-34.25 -41.24,-45.29 -17.46,-11.04 -37.46,-16.64 -60.01,-16.64 -22.26,0 -42.08,5.6 -59.86,16.64 -17.75,11.04 -31.68,26.24 -41.74,45.29 -10.08,19.03 -15.2,40.63 -15.2,65.11 0,24.17 5.12,45.6 15.2,64.64 10.06,19.05 23.99,34.08 41.74,45.12 17.78,11.04 37.6,16.65 59.86,16.65 22.55,0 42.55,-5.61 60.01,-16.65 17.57,-11.04 31.33,-26.07 41.24,-45.12 10.09,-19.04 15.07,-40.47 15.07,-64.64zm463.33 -148.47c3.39,0 6.11,1.11 8.19,3.51 2.08,2.25 3.21,4.8 3.21,7.84l0 251.69c0,28.95 -5.93,54.07 -17.61,75.03 -11.67,21.13 -27.37,37.28 -47.37,48.65 -20.01,11.35 -42.72,16.95 -68.3,16.95 -17.29,0 -32.81,-2.08 -46.57,-6.23 -13.76,-4.16 -24.97,-9.29 -33.62,-15.2 -2.54,-1.93 -4.62,-4.16 -6.24,-6.89 -1.41,-2.72 -1.41,-5.43 0.17,-8.48 1.45,-3.04 3.67,-5.12 6.39,-6.24 2.89,-1.12 5.61,-0.63 8.15,1.28 6.42,3.68 16.19,8.16 29.14,13.44 12.95,5.28 27.52,8 43.67,8 21.95,0 40.96,-5.12 57.29,-15.36 16.48,-10.07 29.28,-24.32 38.39,-42.4 9.31,-18.08 13.93,-38.88 13.93,-62.55l0 -41.77 1.13 14.08c-5.29,11.36 -13.44,21.6 -24.17,30.88 -10.72,9.13 -22.71,16.49 -36.01,21.92 -13.27,5.44 -27.2,8.17 -41.42,8.17 -23.35,0 -42.58,-4.65 -57.43,-13.77 -14.89,-9.27 -25.76,-21.92 -32.67,-38.07 -6.88,-16.17 -10.37,-35.21 -10.37,-57.12l0 -176.01c0,-3.04 0.95,-5.59 3.03,-7.84 2.08,-2.4 4.8,-3.51 8.15,-3.51 3.35,0 6.1,1.11 8.15,3.51 2.08,2.25 3.21,4.8 3.21,7.84l0 176.01c0,26.72 5.93,47.99 17.75,63.83 11.85,15.84 31.85,23.69 60.18,23.69 16.97,0 32.95,-4.17 48.15,-12.64 15.21,-8.49 27.84,-19.53 37.61,-33.13 9.77,-13.6 14.71,-27.52 14.71,-41.75l0 -176.01c0,-3.04 0.95,-5.59 3.03,-7.84 2.09,-2.4 4.8,-3.51 8.15,-3.51zm384.67 296.32c-28.33,0 -53.3,-6.09 -74.89,-18.08 -21.59,-12.01 -38.7,-29.13 -51.19,-51.04 -12.35,-21.93 -18.59,-47.85 -18.59,-77.6 0,-31.53 6.1,-58.4 18.41,-80.65 12.35,-22.24 28.01,-39.35 47.38,-51.2 19.33,-11.84 40.01,-17.75 61.91,-17.75 15.84,0 31.19,2.55 46.25,7.67 15.03,4.96 28.47,12.96 40.33,23.68 11.81,10.72 21.41,24.16 28.78,40.17 7.38,15.83 11.36,35.03 12.17,57.27 0,3.04 -1.13,5.76 -3.35,8.16 -2.26,2.4 -4.97,3.68 -8.01,3.68l-230.25 0 -3.36 -21.43 227.51 0 -5.75 4.95 0 -10.08c-1.76,-19.99 -8.15,-36.64 -18.87,-50.24 -10.73,-13.6 -23.53,-23.84 -38.74,-30.72 -15.03,-7.04 -30.55,-10.55 -46.71,-10.55 -11.36,0 -23.21,2.55 -35.66,7.67 -12.35,5.13 -23.85,12.81 -34.43,23.21 -10.37,10.39 -19.02,23.36 -25.58,39.19 -6.56,15.85 -9.91,34.24 -9.91,55.2 0,23.04 4.62,44.16 13.76,63.37 9.27,19.03 23.03,34.56 41.27,46.23 18.24,11.69 40.78,17.45 67.52,17.45 12.77,0 24.8,-2.09 35.99,-6.41 11.36,-4.32 21.44,-10.08 30.58,-17.28 9.1,-7.2 16.3,-14.87 21.91,-23.2 3.03,-3.36 6.24,-4.96 9.59,-4.96 2.72,0 4.98,0.97 6.74,3.05 1.91,2.07 2.86,4.31 2.86,7.03 0,2.73 -0.81,4.96 -2.22,6.72 -11.71,15.2 -26.57,28.32 -44.8,39.68 -18.28,11.2 -38.42,16.81 -60.65,16.81zm170.89 -50.73c-2.75,-4.64 -3.85,-8.32 -3.71,-11.04 0.18,-2.72 1.63,-5.12 4.34,-7.04 1.77,-1.91 4.31,-2.71 7.52,-2.56 3.21,0.16 5.89,1.6 8.15,4.16 9.77,13.92 22.4,25.29 37.6,33.93 15.21,8.64 33.3,12.95 53.91,12.95 12.31,0 24.34,-2.08 35.7,-6.08 11.53,-4.16 20.95,-10.4 28.33,-18.72 7.33,-8.31 11.04,-18.4 11.04,-30.4 0,-12.8 -3.53,-23.04 -10.73,-30.72 -7.23,-7.84 -16.33,-13.92 -27.69,-18.4 -11.36,-4.64 -23.18,-8.32 -35.52,-11.35 -13.27,-3.36 -25.76,-7.21 -37.61,-11.52 -11.82,-4.33 -22.23,-9.77 -31.36,-16.33 -8.96,-6.56 -16.16,-14.4 -21.42,-23.52 -5.29,-9.11 -7.83,-19.83 -7.83,-32.15 0,-14.72 3.99,-27.86 11.82,-39.53 7.83,-11.68 19.05,-20.81 33.27,-27.36 14.25,-6.56 30.9,-9.91 49.77,-9.91 8.97,0 18.56,1.11 28.65,3.51 10.23,2.25 20.46,6.08 30.55,11.52 10.09,5.45 19.51,13.12 28.33,22.88 3.03,2.24 4.3,4.96 4.16,8.16 -0.17,3.21 -1.59,6.09 -4.16,8.64 -2.4,1.44 -4.8,2.24 -7.52,2.24 -2.57,0 -4.79,-1.11 -6.73,-3.36 -9.78,-10.87 -21.1,-18.88 -34.08,-24.16 -12.95,-5.28 -26.88,-8 -41.45,-8 -12.46,0 -24.13,2.08 -34.86,6.24 -10.72,4.16 -19.37,10.24 -26.24,18.4 -6.74,8.17 -10.09,18.41 -10.09,30.73 0.81,11.67 4.79,21.27 12.17,28.8 7.33,7.51 17.11,13.6 29.28,18.55 12.31,4.96 26.07,9.45 41.59,13.6 12.31,3.04 23.85,6.4 34.57,10.4 10.69,4 20.15,8.96 28.33,15.04 8.15,5.92 14.53,13.44 19.19,22.57 4.62,8.95 7.02,20.16 7.02,33.75 0,15.84 -4.3,29.6 -12.77,41.12 -8.5,11.37 -20.04,20.16 -34.89,26.4 -14.89,6.24 -31.85,9.29 -51.05,9.29 -19.68,0 -38.41,-4.01 -56.48,-11.85 -18.09,-7.84 -34.39,-20.8 -49.1,-38.88zm252.3 -238.71l130.89 0c3.03,0 5.43,1.11 7.51,3.36 2.08,2.23 3.21,4.63 3.21,7.36 0,3.03 -1.13,5.59 -3.21,7.67 -2.08,2.08 -4.48,3.05 -7.51,3.05l-130.89 0c-2.71,0 -5.11,-1.13 -7.37,-3.36 -2.22,-2.4 -3.35,-4.8 -3.35,-7.36 0,-3.05 1.13,-5.61 3.35,-7.69 2.26,-2.09 4.66,-3.03 7.37,-3.03zm57.44 -83.04c3.35,0 6.06,1.11 8.15,3.36 2.08,2.23 3.21,4.79 3.21,7.84l0 294.07c0,12.49 1.62,21.61 4.79,27.52 3.21,5.76 7.2,9.44 12.18,11.2 4.93,1.77 9.59,2.57 14.07,2.57 2.72,0 4.98,-0.33 6.74,-1.13 1.9,-0.8 4.13,-1.12 6.88,-1.12 2.54,0 4.8,1.12 6.7,3.2 1.94,2.08 2.89,4.32 2.89,6.89 0,3.35 -2.25,6.39 -6.56,8.79 -4.34,2.4 -9.77,3.68 -16.16,3.68 -2.25,0 -6.24,-0.15 -12.17,-0.32 -5.75,-0.16 -11.99,-1.91 -18.55,-5.12 -6.56,-3.2 -12.17,-8.96 -16.65,-17.44 -4.48,-8.47 -6.71,-20.96 -6.71,-37.44l0 -295.35c0,-3.05 1.13,-5.61 3.36,-7.84 2.25,-2.25 4.79,-3.36 7.83,-3.36zm158.08 366.87c-3.35,0 -6.07,-1.12 -8.15,-3.36 -2.08,-2.24 -3.04,-4.96 -3.04,-8l0 -259.04c0,-3.03 1.1,-5.6 3.36,-7.84 2.22,-2.23 4.79,-3.36 7.83,-3.36 3.35,0 6.1,1.13 8.18,3.36 2.08,2.24 3.18,4.81 3.18,7.84l0 95.36 -9.6 14.72c0,-14.55 2.58,-29.44 7.51,-44.47 5.12,-15.22 12.63,-29.13 22.41,-42.09 9.77,-12.97 21.76,-23.52 35.84,-31.68 14.07,-8.16 30.41,-12.15 48.82,-12.15 5.26,0 10.87,0.8 16.8,2.23 6.06,1.45 9.1,5.13 9.1,10.72 0,3.36 -0.96,6.24 -2.9,8.48 -1.72,2.24 -4.12,3.36 -7.19,3.36 -2.23,0 -4.94,-0.8 -8.15,-2.4 -3.18,-1.76 -7.83,-2.56 -13.9,-2.56 -12.03,0 -23.85,3.53 -35.53,10.72 -11.67,7.21 -22.26,16.64 -31.85,28.48 -9.6,11.84 -17.29,24.81 -22.9,38.73 -5.57,13.91 -8.46,27.35 -8.46,40.47l0 141.12c0,3.04 -1.1,5.76 -3.36,8 -2.25,2.24 -4.97,3.36 -8,3.36zm409.29 -281.6c3.35,0 6.07,1.13 8.15,3.36 2.08,2.24 3.03,4.81 3.03,7.84l0 164.32c0,36.49 -10.23,63.84 -30.72,82.09 -20.47,18.23 -47.66,27.35 -81.57,27.35 -33.48,0 -60.5,-9.12 -80.96,-27.35 -20.5,-18.25 -30.76,-45.6 -30.76,-82.09l0 -164.32c0,-3.03 1.16,-5.6 3.39,-7.84 2.22,-2.23 4.79,-3.36 7.83,-3.36 3.35,0 6.06,1.13 8.15,3.36 2.08,2.24 3.21,4.81 3.21,7.84l0 164.32c0,28.65 8,50.41 23.99,65.44 16.01,15.05 37.78,22.56 65.15,22.56 27.84,0 49.75,-7.51 65.76,-22.56 15.98,-15.03 23.99,-36.79 23.99,-65.44l0 -164.32c0,-3.03 0.95,-5.6 3.03,-7.84 2.09,-2.23 4.98,-3.36 8.33,-3.36zm229.59 -9.11c16.97,0 32.81,1.91 47.69,5.76 14.89,3.68 27.03,8.64 36.16,14.87 9.28,6.24 13.9,12.65 13.9,19.52 0,2.57 -1.09,5.11 -3.17,7.53 -2.08,2.4 -4.48,3.68 -7.55,3.68 -4.17,0 -7.52,-1.13 -9.92,-3.36 -2.39,-2.25 -4.97,-4.96 -7.69,-8.16 -2.54,-3.21 -6.7,-6.09 -12.31,-8.81 -5.25,-2.56 -12.8,-4.79 -22.4,-6.72 -9.59,-1.92 -21.27,-2.88 -35.21,-2.88 -21.9,0 -41.73,5.6 -59.83,16.96 -18.06,11.37 -32.45,26.4 -43.18,45.45 -10.72,19.03 -16.01,40.31 -16.01,63.99 0,24.16 4.97,45.77 14.88,64.96 10.09,19.2 23.99,34.4 41.77,45.44 17.92,11.04 38.7,16.65 62.37,16.65 16.97,0 29.78,-1.6 38.56,-4.81 8.82,-3.2 16.51,-6.72 22.9,-10.39 8.01,-4.48 13.44,-8.81 16.47,-12.97 3.04,-4.16 6.56,-6.24 10.73,-6.24 3.03,0 5.29,0.96 7.05,2.88 1.77,1.76 2.54,4.32 2.54,7.37 0,4.48 -4.16,10.39 -12.45,17.75 -8.19,7.2 -19.86,13.76 -34.75,19.36 -14.89,5.61 -32.46,8.49 -52.81,8.49 -27.34,0 -51.65,-6.41 -72.78,-19.36 -20.95,-12.97 -37.43,-30.73 -49.42,-53.13 -11.86,-22.4 -17.78,-47.68 -17.78,-76 0,-26.23 5.92,-50.56 17.78,-72.96 11.99,-22.4 28.47,-40.48 49.74,-54.24 21.27,-13.75 46.07,-20.63 74.72,-20.63zm141.28 6.88l130.89 0c3.03,0 5.43,1.11 7.51,3.36 2.08,2.23 3.21,4.63 3.21,7.36 0,3.03 -1.13,5.59 -3.21,7.67 -2.08,2.08 -4.48,3.05 -7.51,3.05l-130.89 0c-2.71,0 -5.11,-1.13 -7.37,-3.36 -2.22,-2.4 -3.35,-4.8 -3.35,-7.36 0,-3.05 1.13,-5.61 3.35,-7.69 2.26,-2.09 4.66,-3.03 7.37,-3.03zm57.44 -83.04c3.35,0 6.1,1.11 8.18,3.36 2.08,2.23 3.18,4.79 3.18,7.84l0 294.07c0,12.49 1.62,21.61 4.79,27.52 3.21,5.76 7.2,9.44 12.18,11.2 4.97,1.77 9.59,2.57 14.07,2.57 2.72,0 4.98,-0.33 6.74,-1.13 1.9,-0.8 4.13,-1.12 6.84,-1.12 2.58,0 4.84,1.12 6.74,3.2 1.91,2.08 2.89,4.32 2.89,6.89 0,3.35 -2.25,6.39 -6.56,8.79 -4.34,2.4 -9.77,3.68 -16.16,3.68 -2.25,0 -6.24,-0.15 -12.17,-0.32 -5.75,-0.16 -11.99,-1.91 -18.55,-5.12 -6.56,-3.2 -12.17,-8.96 -16.65,-17.44 -4.48,-8.47 -6.71,-20.96 -6.71,-37.44l0 -295.35c0,-3.05 1.1,-5.61 3.36,-7.84 2.22,-2.25 4.79,-3.36 7.83,-3.36zm359.69 85.27c3.35,0 6.07,1.13 8.15,3.36 2.08,2.24 3.03,4.81 3.03,7.84l0 164.32c0,36.49 -10.23,63.84 -30.69,82.09 -20.5,18.23 -47.69,27.35 -81.63,27.35 -33.41,0 -60.47,-9.12 -80.96,-27.35 -20.47,-18.25 -30.7,-45.6 -30.7,-82.09l0 -164.32c0,-3.03 1.1,-5.6 3.36,-7.84 2.25,-2.23 4.79,-3.36 7.83,-3.36 3.35,0 6.06,1.13 8.15,3.36 2.08,2.24 3.21,4.81 3.21,7.84l0 164.32c0,28.65 8,50.41 24.02,65.44 15.98,15.05 37.75,22.56 65.09,22.56 27.87,0 49.77,-7.51 65.76,-22.56 16.01,-15.03 24.02,-36.79 24.02,-65.44l0 -164.32c0,-3.03 0.95,-5.6 3.03,-7.84 2.09,-2.23 4.98,-3.36 8.33,-3.36zm116.17 281.6c-3.39,0 -6.1,-1.12 -8.19,-3.36 -2.08,-2.24 -3.03,-4.96 -3.03,-8l0 -259.04c0,-3.03 1.13,-5.6 3.35,-7.84 2.26,-2.23 4.8,-3.36 7.87,-3.36 3.35,0 6.07,1.13 8.15,3.36 2.08,2.24 3.17,4.81 3.17,7.84l0 95.36 -9.59 14.72c0,-14.55 2.57,-29.44 7.51,-44.47 5.15,-15.22 12.67,-29.13 22.44,-42.09 9.74,-12.97 21.73,-23.52 35.84,-31.68 14.04,-8.16 30.37,-12.15 48.79,-12.15 5.26,0 10.87,0.8 16.79,2.23 6.07,1.45 9.14,5.13 9.14,10.72 0,3.36 -0.99,6.24 -2.89,8.48 -1.77,2.24 -4.17,3.36 -7.2,3.36 -2.26,0 -4.97,-0.8 -8.18,-2.4 -3.18,-1.76 -7.84,-2.56 -13.9,-2.56 -12,0 -23.85,3.53 -35.53,10.72 -11.68,7.21 -22.26,16.64 -31.82,28.48 -9.63,11.84 -17.29,24.81 -22.89,38.73 -5.61,13.91 -8.51,27.35 -8.51,40.47l0 141.12c0,3.04 -1.09,5.76 -3.35,8 -2.22,2.24 -4.94,3.36 -7.97,3.36zm429.58 -281.6c3.35,0 6.1,1.13 8.18,3.36 2.08,2.24 3.03,4.81 3.03,7.84l0 259.04c0,3.04 -1.12,5.76 -3.35,8 -2.25,2.24 -4.83,3.36 -7.86,3.36 -3.35,0 -6.25,-1.12 -8.33,-3.36 -2.08,-2.24 -3.03,-4.96 -3.03,-8l0 -80.16 9.13 -7.2c0,12 -3.07,24.32 -9.13,36.64 -5.93,12.32 -14.22,23.69 -24.8,33.93 -10.55,10.07 -23.04,18.23 -37.29,24.47 -14.22,6.24 -29.74,9.29 -46.22,9.29 -25.11,0 -47.69,-6.56 -67.52,-19.69 -19.68,-13.28 -35.2,-31.04 -46.56,-53.6 -11.36,-22.55 -16.97,-47.99 -16.97,-76.31 0,-28.65 5.78,-53.93 17.28,-75.85 11.54,-21.93 27.2,-39.2 46.89,-51.84 19.68,-12.64 42.08,-19.03 66.88,-19.03 16.16,0 31.51,2.88 45.76,8.79 14.25,5.92 26.7,14.08 37.43,24.64 10.72,10.4 19.19,22.72 25.12,36.96 6.06,14.08 9.13,29.45 9.13,45.93l-9.13 -14.09 0 -81.92c0,-3.03 0.95,-5.6 3.03,-7.84 2.08,-2.23 4.98,-3.36 8.33,-3.36zm-118.57 265.77c21.13,0 40,-5.61 56.51,-16.65 16.48,-11.04 29.42,-26.24 38.88,-45.6 9.42,-19.36 14.07,-41.44 14.07,-65.91 0,-23.21 -4.65,-44.33 -14.07,-63.36 -9.46,-19.05 -22.4,-34.25 -38.88,-45.29 -16.51,-11.04 -35.38,-16.64 -56.51,-16.64 -20.64,0 -39.34,5.44 -55.99,16.16 -16.47,10.72 -29.6,25.44 -39.19,44.32 -9.46,18.73 -14.25,40.32 -14.25,64.81 0,24.47 4.65,46.55 14.07,65.91 9.46,19.36 22.4,34.56 38.88,45.6 16.47,11.04 35.38,16.65 56.48,16.65zm609.14 -401.92c3.35,0 6.07,1.11 8.15,3.51 2.08,2.25 3.03,4.8 3.03,7.84l0 395.04c0,3.04 -1.13,5.76 -3.35,8 -2.26,2.24 -4.8,3.36 -7.83,3.36 -3.39,0 -6.24,-1.12 -8.33,-3.36 -2.08,-2.24 -3.03,-4.96 -3.03,-8l0 -80.16 9.1 -12.32c0,12.81 -2.89,25.76 -8.78,38.73 -5.93,12.95 -14.25,24.79 -24.98,35.51 -10.69,10.72 -23.18,19.21 -37.43,25.6 -14.25,6.4 -29.77,9.61 -46.25,9.61 -24.8,0 -47.2,-6.41 -66.85,-19.36 -19.68,-12.97 -35.38,-30.73 -46.88,-53.13 -11.54,-22.4 -17.29,-47.68 -17.29,-76 0,-28.16 5.75,-53.44 17.29,-75.84 11.5,-22.4 27.2,-39.99 46.88,-52.8 19.65,-12.8 42.05,-19.19 66.85,-19.19 15.52,0 30.27,2.88 44.31,8.79 14.11,5.92 26.6,14.08 37.47,24.64 11.04,10.4 19.68,22.72 26.07,36.96 6.42,14.08 9.59,29.45 9.59,45.93l-9.1 -14.09 0 -217.92c0,-3.04 0.95,-5.59 3.03,-7.84 2.09,-2.4 4.94,-3.51 8.33,-3.51zm-118.57 401.92c21.45,0 40.32,-5.45 56.66,-16.33 16.47,-10.88 29.24,-25.91 38.7,-45.12 9.45,-19.2 14.07,-41.12 14.07,-65.6 0,-24.48 -4.62,-46.08 -14.07,-65.12 -9.46,-19.03 -22.4,-33.92 -38.88,-44.8 -16.47,-11.04 -35.35,-16.48 -56.48,-16.48 -20.64,0 -39.37,5.44 -55.99,16.48 -16.47,10.88 -29.59,25.77 -39.22,44.8 -9.42,19.04 -14.22,40.64 -14.22,65.12 0,24.16 4.8,45.77 14.22,64.96 9.63,19.2 22.75,34.4 39.22,45.44 16.62,11.04 35.35,16.65 55.99,16.65zm350.56 21.44c-28.33,0 -53.27,-6.09 -74.86,-18.08 -21.63,-12.01 -38.74,-29.13 -51.23,-51.04 -12.31,-21.93 -18.55,-47.85 -18.55,-77.6 0,-31.53 6.1,-58.4 18.41,-80.65 12.31,-22.24 28.01,-39.35 47.34,-51.2 19.37,-11.84 40.01,-17.75 61.95,-17.75 15.81,0 31.19,2.55 46.22,7.67 15.06,4.96 28.47,12.96 40.32,23.68 11.85,10.72 21.45,24.16 28.79,40.17 7.37,15.83 11.39,35.03 12.17,57.27 0,3.04 -1.13,5.76 -3.35,8.16 -2.26,2.4 -4.98,3.68 -8.01,3.68l-230.23 0 -3.35 -21.43 227.51 0 -5.75 4.95 0 -10.08c-1.76,-19.99 -8.19,-36.64 -18.91,-50.24 -10.72,-13.6 -23.49,-23.84 -38.7,-30.72 -15.03,-7.04 -30.59,-10.55 -46.71,-10.55 -11.39,0 -23.21,2.55 -35.7,7.67 -12.31,5.13 -23.85,12.81 -34.39,23.21 -10.41,10.39 -19.05,23.36 -25.62,39.19 -6.56,15.85 -9.91,34.24 -9.91,55.2 0,23.04 4.62,44.16 13.76,63.37 9.28,19.03 23.04,34.56 41.27,46.23 18.24,11.69 40.82,17.45 67.53,17.45 12.8,0 24.8,-2.09 36.01,-6.41 11.36,-4.32 21.42,-10.08 30.56,-17.28 9.1,-7.2 16.33,-14.87 21.9,-23.2 3.07,-3.36 6.25,-4.96 9.6,-4.96 2.71,0 4.97,0.97 6.74,3.05 1.9,2.07 2.89,4.31 2.89,7.03 0,2.73 -0.81,4.96 -2.26,6.72 -11.68,15.2 -26.56,28.32 -44.8,39.68 -18.24,11.2 -38.42,16.81 -60.64,16.81zm364.63 -16.97c0,3.04 -1.1,5.76 -3.5,8 -2.25,2.24 -4.79,3.36 -7.86,3.36 -3.35,0 -6.25,-1.12 -8.33,-3.36 -2.04,-2.24 -3,-4.96 -3,-8l0 -395.04c0,-3.04 1.1,-5.59 3.32,-7.84 2.43,-2.4 4.97,-3.51 8.01,-3.51 3.38,0 6.1,1.11 8.18,3.51 2.08,2.25 3.18,4.8 3.18,7.84l0 395.04zm329.6 -270.24c3.38,0 6.1,1.13 8.18,3.36 2.08,2.24 3.04,4.81 3.04,7.84l0 259.04c0,3.04 -1.13,5.76 -3.36,8 -2.25,2.24 -4.79,3.36 -7.86,3.36 -3.35,0 -6.21,-1.12 -8.29,-3.36 -2.08,-2.24 -3.07,-4.96 -3.07,-8l0 -80.16 9.13 -7.2c0,12 -3.03,24.32 -9.13,36.64 -5.93,12.32 -14.22,23.69 -24.8,33.93 -10.55,10.07 -23.04,18.23 -37.26,24.47 -14.25,6.24 -29.77,9.29 -46.24,9.29 -25.12,0 -47.67,-6.56 -67.53,-19.69 -19.68,-13.28 -35.2,-31.04 -46.56,-53.6 -11.36,-22.55 -16.97,-47.99 -16.97,-76.31 0,-28.65 5.78,-53.93 17.28,-75.85 11.54,-21.93 27.2,-39.2 46.89,-51.84 19.68,-12.64 42.08,-19.03 66.89,-19.03 16.15,0 31.5,2.88 45.75,8.79 14.25,5.92 26.71,14.08 37.43,24.64 10.72,10.4 19.19,22.72 25.12,36.96 6.1,14.08 9.13,29.45 9.13,45.93l-9.13 -14.09 0 -81.92c0,-3.03 0.99,-5.6 3.07,-7.84 2.08,-2.23 4.94,-3.36 8.29,-3.36zm-118.54 265.77c21.1,0 40.01,-5.61 56.48,-16.65 16.48,-11.04 29.43,-26.24 38.88,-45.6 9.42,-19.36 14.08,-41.44 14.08,-65.91 0,-23.21 -4.66,-44.33 -14.08,-63.36 -9.45,-19.05 -22.4,-34.25 -38.88,-45.29 -16.47,-11.04 -35.38,-16.64 -56.48,-16.64 -20.63,0 -39.37,5.44 -56.02,16.16 -16.47,10.72 -29.6,25.44 -39.19,44.32 -9.46,18.73 -14.25,40.32 -14.25,64.81 0,24.47 4.65,46.55 14.11,65.91 9.42,19.36 22.36,34.56 38.87,45.6 16.48,11.04 35.35,16.65 56.48,16.65zm500.63 -274.88c16.97,0 32.81,1.91 47.7,5.76 14.88,3.68 27.02,8.64 36.16,14.87 9.27,6.24 13.9,12.65 13.9,19.52 0,2.57 -1.1,5.11 -3.18,7.53 -2.08,2.4 -4.48,3.68 -7.55,3.68 -4.16,0 -7.51,-1.13 -9.91,-3.36 -2.4,-2.25 -4.98,-4.96 -7.69,-8.16 -2.54,-3.21 -6.71,-6.09 -12.31,-8.81 -5.26,-2.56 -12.81,-4.79 -22.41,-6.72 -9.59,-1.92 -21.27,-2.88 -35.2,-2.88 -21.91,0 -41.74,5.6 -59.83,16.96 -18.1,11.37 -32.46,26.4 -43.18,45.45 -10.73,19.03 -16.02,40.31 -16.02,63.99 0,24.16 4.97,45.77 14.89,64.96 10.09,19.2 23.99,34.4 41.77,45.44 17.92,11.04 38.7,16.65 62.37,16.65 16.97,0 29.77,-1.6 38.56,-4.81 8.82,-3.2 16.51,-6.72 22.89,-10.39 8.01,-4.48 13.44,-8.81 16.48,-12.97 3.03,-4.16 6.56,-6.24 10.72,-6.24 3.03,0 5.29,0.96 7.06,2.88 1.76,1.76 2.54,4.32 2.54,7.37 0,4.48 -4.17,10.39 -12.49,17.75 -8.15,7.2 -19.83,13.76 -34.72,19.36 -14.88,5.61 -32.45,8.49 -52.81,8.49 -27.34,0 -51.64,-6.41 -72.77,-19.36 -20.96,-12.97 -37.47,-30.73 -49.43,-53.13 -11.85,-22.4 -17.78,-47.68 -17.78,-76 0,-26.23 5.93,-50.56 17.78,-72.96 11.96,-22.4 28.47,-40.48 49.74,-54.24 21.28,-13.75 46.08,-20.63 74.72,-20.63zm189.76 279.35c0,3.04 -1.13,5.76 -3.35,8 -2.26,2.24 -4.98,3.36 -8.01,3.36 -3.35,0 -6.07,-1.12 -8.15,-3.36 -2.08,-2.24 -3.03,-4.96 -3.03,-8l0 -268c0,-3.04 1.09,-5.59 3.35,-7.84 2.22,-2.4 4.8,-3.51 7.83,-3.51 3.35,0 6.07,1.11 8.15,3.51 2.08,2.25 3.21,4.8 3.21,7.84l0 268zm-11.36 -317.76c-5.93,0 -10.72,-1.6 -14.39,-4.96 -3.53,-3.36 -5.29,-7.84 -5.29,-13.12l0 -4.48c0,-5.27 1.94,-9.6 5.6,-12.97 3.67,-3.34 8.65,-5.11 14.72,-5.11 5.29,0 9.59,1.77 13.12,5.11 3.67,3.37 5.43,7.7 5.43,12.97l0 4.48c0,5.28 -1.76,9.76 -5.43,13.12 -3.53,3.36 -8.15,4.96 -13.76,4.96zm232.16 334.73c-28.32,0 -53.27,-6.09 -74.89,-18.08 -21.59,-12.01 -38.7,-29.13 -51.19,-51.04 -12.31,-21.93 -18.56,-47.85 -18.56,-77.6 0,-31.53 6.07,-58.4 18.42,-80.65 12.31,-22.24 27.98,-39.35 47.34,-51.2 19.37,-11.84 40.01,-17.75 61.92,-17.75 15.83,0 31.22,2.55 46.24,7.67 15.03,4.96 28.47,12.96 40.33,23.68 11.85,10.72 21.41,24.16 28.78,40.17 7.38,15.83 11.36,35.03 12.17,57.27 0,3.04 -1.12,5.76 -3.35,8.16 -2.25,2.4 -4.97,3.68 -8.01,3.68l-230.22 0 -3.38 -21.43 227.5 0 -5.75 4.95 0 -10.08c-1.73,-19.99 -8.15,-36.64 -18.87,-50.24 -10.73,-13.6 -23.53,-23.84 -38.74,-30.72 -15.03,-7.04 -30.55,-10.55 -46.7,-10.55 -11.36,0 -23.18,2.55 -35.67,7.67 -12.31,5.13 -23.85,12.81 -34.4,23.21 -10.4,10.39 -19.05,23.36 -25.61,39.19 -6.56,15.85 -9.91,34.24 -9.91,55.2 0,23.04 4.62,44.16 13.76,63.37 9.28,19.03 23.03,34.56 41.27,46.23 18.24,11.69 40.82,17.45 67.52,17.45 12.81,0 24.8,-2.09 35.99,-6.41 11.39,-4.32 21.45,-10.08 30.58,-17.28 9.1,-7.2 16.3,-14.87 21.91,-23.2 3.03,-3.36 6.24,-4.96 9.6,-4.96 2.71,0 4.97,0.97 6.73,3.05 1.91,2.07 2.86,4.31 2.86,7.03 0,2.73 -0.77,4.96 -2.22,6.72 -11.68,15.2 -26.57,28.32 -44.8,39.68 -18.24,11.2 -38.42,16.81 -60.65,16.81zm314.89 -296.32c23.67,0 42.87,4.79 57.75,14.23 14.89,9.44 25.93,22.24 32.81,38.41 6.88,16.15 10.41,34.08 10.41,54.07l0 172.64c0,3.04 -1.13,5.76 -3.39,8 -2.22,2.24 -4.8,3.36 -7.83,3.36 -3.35,0 -6.24,-1.12 -8.33,-3.36 -2.08,-2.24 -3.03,-4.96 -3.03,-8l0 -170.4c0,-16.16 -2.72,-30.87 -8.15,-43.99 -5.43,-13.29 -14.07,-23.84 -26.1,-31.68 -11.82,-7.84 -27.34,-11.85 -46.39,-11.85 -16.62,0 -32.81,4.01 -48.65,11.85 -15.84,7.84 -28.79,18.39 -39.2,31.68 -10.4,13.12 -15.52,27.83 -15.52,43.99l0 170.4c0,3.04 -1.13,5.76 -3.35,8 -2.26,2.24 -4.94,3.36 -8.01,3.36 -3.35,0 -6.07,-1.12 -8.15,-3.36 -2.08,-2.24 -3.03,-4.96 -3.03,-8l0 -259.04c0,-3.03 1.13,-5.6 3.35,-7.84 2.26,-2.23 4.8,-3.36 7.83,-3.36 3.35,0 6.11,1.13 8.15,3.36 2.08,2.24 3.21,4.81 3.21,7.84l0 55.36 -14.07 27.05c0,-13.6 3.52,-26.57 10.72,-38.89 7.2,-12.47 16.47,-23.53 28.15,-33.12 11.68,-9.6 24.66,-17.12 38.74,-22.55 14.07,-5.45 28.15,-8.16 42.08,-8.16zm319.37 0c16.94,0 32.78,1.91 47.66,5.76 14.89,3.68 27.06,8.64 36.16,14.87 9.28,6.24 13.94,12.65 13.94,19.52 0,2.57 -1.13,5.11 -3.21,7.53 -2.08,2.4 -4.48,3.68 -7.52,3.68 -4.16,0 -7.55,-1.13 -9.95,-3.36 -2.36,-2.25 -4.93,-4.96 -7.65,-8.16 -2.58,-3.21 -6.74,-6.09 -12.31,-8.81 -5.29,-2.56 -12.81,-4.79 -22.4,-6.72 -9.6,-1.92 -21.31,-2.88 -35.21,-2.88 -21.94,0 -41.77,5.6 -59.87,16.96 -18.06,11.37 -32.45,26.4 -43.18,45.45 -10.72,19.03 -15.98,40.31 -15.98,63.99 0,24.16 4.94,45.77 14.85,64.96 10.09,19.2 24.03,34.4 41.77,45.44 17.92,11.04 38.74,16.65 62.41,16.65 16.97,0 29.74,-1.6 38.56,-4.81 8.78,-3.2 16.47,-6.72 22.86,-10.39 8.01,-4.48 13.47,-8.81 16.47,-12.97 3.07,-4.16 6.56,-6.24 10.73,-6.24 3.07,0 5.29,0.96 7.05,2.88 1.77,1.76 2.58,4.32 2.58,7.37 0,4.48 -4.17,10.39 -12.49,17.75 -8.19,7.2 -19.83,13.76 -34.71,19.36 -14.89,5.61 -32.49,8.49 -52.81,8.49 -27.38,0 -51.69,-6.41 -72.82,-19.36 -20.95,-12.97 -37.43,-30.73 -49.42,-53.13 -11.86,-22.4 -17.75,-47.68 -17.75,-76 0,-26.23 5.89,-50.56 17.75,-72.96 11.99,-22.4 28.47,-40.48 49.74,-54.24 21.31,-13.75 46.07,-20.63 74.75,-20.63zm189.73 279.35c0,3.04 -1.1,5.76 -3.35,8 -2.23,2.24 -4.94,3.36 -7.98,3.36 -3.38,0 -6.1,-1.12 -8.18,-3.36 -2.08,-2.24 -3.04,-4.96 -3.04,-8l0 -268c0,-3.04 1.13,-5.59 3.36,-7.84 2.25,-2.4 4.79,-3.51 7.86,-3.51 3.32,0 6.07,1.11 8.15,3.51 2.08,2.25 3.18,4.8 3.18,7.84l0 268zm-11.33 -317.76c-5.92,0 -10.72,-1.6 -14.43,-4.96 -3.52,-3.36 -5.29,-7.84 -5.29,-13.12l0 -4.48c0,-5.27 1.94,-9.6 5.61,-12.97 3.71,-3.34 8.64,-5.11 14.75,-5.11 5.25,0 9.59,1.77 13.09,5.11 3.7,3.37 5.46,7.7 5.46,12.97l0 4.48c0,5.28 -1.76,9.76 -5.46,13.12 -3.5,3.36 -8.15,4.96 -13.73,4.96zm338.21 47.52c3.35,0 6.1,1.13 8.19,3.36 2.08,2.24 3.03,4.81 3.03,7.84l0 259.04c0,3.04 -1.13,5.76 -3.35,8 -2.26,2.24 -4.84,3.36 -7.87,3.36 -3.35,0 -6.21,-1.12 -8.29,-3.36 -2.08,-2.24 -3.07,-4.96 -3.07,-8l0 -80.16 9.14 -7.2c0,12 -3.07,24.32 -9.14,36.64 -5.89,12.32 -14.22,23.69 -24.8,33.93 -10.55,10.07 -23.04,18.23 -37.29,24.47 -14.21,6.24 -29.74,9.29 -46.21,9.29 -25.12,0 -47.7,-6.56 -67.52,-19.69 -19.69,-13.28 -35.21,-31.04 -46.57,-53.6 -11.36,-22.55 -16.97,-47.99 -16.97,-76.31 0,-28.65 5.79,-53.93 17.29,-75.85 11.53,-21.93 27.2,-39.2 46.88,-51.84 19.69,-12.64 42.09,-19.03 66.89,-19.03 16.16,0 31.5,2.88 45.75,8.79 14.26,5.92 26.74,14.08 37.43,24.64 10.73,10.4 19.23,22.72 25.12,36.96 6.07,14.08 9.14,29.45 9.14,45.93l-9.14 -14.09 0 -81.92c0,-3.03 0.99,-5.6 3.07,-7.84 2.08,-2.23 4.94,-3.36 8.29,-3.36zm-118.53 265.77c21.09,0 40,-5.61 56.48,-16.65 16.47,-11.04 29.42,-26.24 38.87,-45.6 9.42,-19.36 14.08,-41.44 14.08,-65.91 0,-23.21 -4.66,-44.33 -14.08,-63.36 -9.45,-19.05 -22.4,-34.25 -38.87,-45.29 -16.48,-11.04 -35.39,-16.64 -56.48,-16.64 -20.68,0 -39.37,5.44 -56.02,16.16 -16.48,10.72 -29.6,25.44 -39.2,44.32 -9.42,18.73 -14.25,40.32 -14.25,64.81 0,24.47 4.66,46.55 14.08,65.91 9.45,19.36 22.43,34.56 38.91,45.6 16.47,11.04 35.35,16.65 56.48,16.65zm220.13 15.83c-4.94,0 -8.61,-1.75 -11.36,-5.11 -2.72,-3.37 -3.99,-7.53 -3.99,-12.32l0 -13.12c0,-5.29 1.27,-9.44 3.99,-12.65 2.75,-3.2 6.42,-4.8 11.36,-4.8l2.26 0c5.25,0 9.1,1.6 11.5,4.8 2.4,3.21 3.7,7.36 3.7,12.65l0 13.12c0,4.79 -1.3,8.95 -3.7,12.32 -2.4,3.36 -6.25,5.11 -11.5,5.11l-2.26 0z"/>
  <path class="fil0" d="M5776.19 21326.43c-189.52,0 -364.46,-32.8 -524.82,-102.05 -164.01,-65.6 -306.15,-160.36 -426.42,-280.63 -123.91,-120.27 -218.67,-258.77 -284.27,-419.13 -69.25,-156.71 -102.05,-328.01 -102.05,-513.88 0,-185.88 32.8,-357.17 102.05,-517.53 65.6,-156.72 160.36,-298.86 284.27,-419.13 120.27,-120.27 262.41,-211.39 426.42,-280.63 164.01,-65.61 338.95,-98.41 524.82,-98.41 134.85,0 266.05,18.22 393.61,51.03 127.56,36.44 244.19,87.47 353.53,153.07 105.69,65.6 200.45,145.78 284.28,240.54l-258.77 262.41c-98.4,-112.98 -211.38,-200.45 -346.23,-262.41 -134.85,-61.96 -276.99,-91.11 -426.42,-91.11 -134.85,0 -262.41,25.51 -375.39,72.89 -112.98,47.38 -215.03,116.62 -298.86,204.09 -83.82,87.47 -153.07,189.52 -200.45,302.5 -47.38,116.63 -72.89,244.19 -72.89,382.69 0,134.85 25.51,262.41 72.89,379.03 47.38,116.63 116.63,218.68 204.1,302.5 83.82,87.47 185.87,156.72 302.5,204.1 116.62,47.38 244.18,72.89 379.03,72.89 149.43,0 287.93,-29.16 419.13,-91.11 131.21,-58.32 244.19,-142.14 338.95,-247.83l251.47 255.12c-83.82,91.11 -178.58,167.65 -284.27,233.25 -109.34,69.25 -225.97,120.27 -349.88,153.07 -127.56,36.45 -255.13,54.67 -386.33,54.67zm1395.88 -40.09l0 -2551.21 386.32 0 0 1093.38 1352.14 0 0 -1093.38 386.33 0 0 2551.21 -386.33 0 0 -1111.6 -1352.14 0 0 1111.6 -386.32 0zm3681.02 40.09c-222.32,0 -411.84,-47.38 -575.84,-138.49 -164.01,-91.12 -287.92,-222.32 -375.39,-393.62 -91.12,-167.65 -134.85,-368.1 -134.85,-597.71l0 -1461.48 386.32 0 0 1461.48c0,156.72 29.16,295.21 87.47,408.19 54.67,116.63 138.5,207.74 244.19,269.7 105.69,61.96 229.61,94.76 371.75,94.76 142.13,0 262.41,-32.8 368.1,-94.76 105.69,-61.96 185.87,-153.07 244.19,-269.7 58.31,-112.98 87.47,-251.47 87.47,-408.19l0 -1461.48 382.68 0 0 1461.48c0,229.61 -43.74,430.06 -131.21,597.71 -91.11,171.3 -215.03,302.5 -375.39,393.62 -164.01,91.11 -357.17,138.49 -579.49,138.49zm-255.12 -2933.89l335.3 -444.64 441 0 -470.15 444.64 -306.15 0zm2853.71 2933.89c-222.32,0 -411.84,-47.38 -575.84,-138.49 -164.01,-91.12 -287.92,-222.32 -375.39,-393.62 -91.12,-167.65 -134.85,-368.1 -134.85,-597.71l0 -1461.48 386.32 0 0 1461.48c0,156.72 29.16,295.21 87.47,408.19 54.67,116.63 138.5,207.74 244.19,269.7 105.69,61.96 229.61,94.76 371.75,94.76 142.13,0 262.41,-32.8 368.1,-94.76 105.69,-61.96 185.87,-153.07 244.19,-269.7 58.31,-112.98 87.47,-251.47 87.47,-408.19l0 -1461.48 382.68 0 0 1461.48c0,229.61 -43.74,430.06 -131.21,597.71 -91.11,171.3 -215.03,302.5 -375.39,393.62 -164.01,91.11 -357.17,138.49 -579.49,138.49zm1559.89 -40.09l0 -2551.21 386.32 0 0 1180.85 1231.87 -1180.85 484.73 0 -1322.98 1235.52 1363.07 1315.69 -524.82 0 -1231.87 -1206.36 0 1206.36 -386.32 0z"/>
  <path class="fil1" d="M6723.63 14146.21l0 -4798.37 4003.21 -2392.05 1612.83 963.65 193.15 -382.09 -1696.26 -1013.57c-65.3,-38.88 -149.58,-41.66 -219.39,0l-4201.76 2510.51c-71.3,34.82 -120.55,108.23 -120.55,192.83l0.81 5039.81c0.81,368.3 329.6,-28.36 427.96,-120.72zm2072.81 1736.09l264.48 -339.62 1665.92 995.4 4003.08 -2391.87 0 -4707.46c75.18,-52.5 427.81,-265.26 427.95,-211.63l0.82 5039.81c0,84.74 -49.29,157.98 -120.58,192.83l-4201.55 2510.51c-69.85,41.63 -154.1,38.88 -219.39,0l-1820.73 -1087.97z"/>
  <path class="fil1" d="M6715.94 14125.82l-427.92 -65.05c-62.02,176.53 -219.75,378.57 -545.56,593.8 -120.43,77.85 -178.38,120.33 -291.86,205.49 -971.7,714.34 -2683.75,2076.27 -2793.54,2163.59 -286.32,212.51 -374.1,532.44 -318.24,810.78 21.13,105.7 64.33,207.01 125.9,294.96 62.86,89.85 145.48,165.35 243.83,217.74 230.81,122.69 539.67,120.22 876.43,-120.69l3868.09 -2765.53c96.13,-68.72 118.39,-202.71 49.63,-298.84 -68.79,-96.09 -202.74,-118.35 -298.84,-49.6l-3868.1 2765.53c-182.61,130.64 -329.02,143.16 -426.3,91.51 -37.33,-19.86 -69.76,-49.99 -94.97,-85.93 -26.35,-37.68 -45.55,-83.65 -55.45,-133.25 -26.24,-130.49 16.21,-281.41 152.4,-382.76l5.63 -4.34c4.94,-3.95 1802.29,-1435.7 2786.44,-2159.25 96.81,-72.6 172.92,-126.36 273.99,-192.23 455.3,-300.81 664.42,-607.97 738.44,-885.93z"/>
  <path class="fil1" d="M7258.9 15796.44c-233.19,0 -422.17,-194.35 -422.17,-433.99 0,-239.68 188.98,-433.99 422.17,-433.99 233.22,0 422.2,194.31 422.2,433.99 0,239.64 -188.98,433.99 -422.2,433.99z"/>
  <path class="fil2 str0" d="M7258.9 15796.44c-233.19,0 -422.17,-194.35 -422.17,-433.99 0,-239.68 188.98,-433.99 422.17,-433.99 233.22,0 422.2,194.31 422.2,433.99 0,239.64 -188.98,433.99 -422.2,433.99z"/>
  <path class="fil2 str1" d="M10726.63 15119.32c-1866.47,0 -3379.57,-1509.79 -3379.57,-3372.35 0,-1862.59 1513.1,-3372.34 3379.57,-3372.34 1866.51,0 3379.58,1509.75 3379.58,3372.34 0,1862.56 -1513.07,3372.35 -3379.58,3372.35z"/>
  <path class="fil1" d="M14741.28 9721.78l425.03 81.77c68.89,-173.95 234.38,-369.67 568.39,-571.99 123.4,-73.06 182.95,-113.24 299.69,-193.89 998.92,-675.74 2762.99,-1969.59 2876.12,-2052.53 294.43,-201.15 394.69,-517.42 349.75,-797.7 -16.97,-106.47 -56.17,-209.41 -114.27,-299.68 -59.27,-92.26 -138.89,-170.89 -235.09,-227.12 -225.85,-131.62 -534.56,-141.25 -880.5,86.29l-3973.4 2611.89c-98.75,64.99 -126.23,197.95 -61.28,296.69 64.94,98.74 197.91,126.22 296.65,61.28l3973.41 -2611.93c187.6,-123.37 334.39,-130.14 429.54,-74.76 36.55,21.31 67.8,52.67 91.54,89.61 24.87,38.66 42.27,85.33 50.2,135.32 21.14,131.38 -27.2,280.5 -167.28,376.49l-5.79 4.13c-5.08,3.73 -1857.13,1363.98 -2868.86,2048.47 -99.55,68.72 -177.73,119.45 -281.27,181.33 -466.76,282.78 -687.74,581.48 -772.58,856.33z"/>
  <path class="fil1" d="M14005.21 8221.63c233.18,5.11 417.83,203.52 412.57,443.16 -5.25,239.6 -198.44,429.72 -431.62,424.6 -233.15,-5.11 -417.8,-203.52 -412.54,-443.16 5.26,-239.61 198.44,-429.72 431.59,-424.6z"/>
  <path class="fil2 str0" d="M14005.21 8221.63c233.18,5.11 417.83,203.52 412.57,443.16 -5.25,239.6 -198.44,429.72 -431.62,424.6 -233.15,-5.11 -417.8,-203.52 -412.54,-443.16 5.26,-239.61 198.44,-429.72 431.59,-424.6z"/>
 </g>
</svg>
